<svg version="1.1" xmlns="http://www.w3.org/2000/svg" xmlns:xlink="http://www.w3.org/1999/xlink" width="27.48365" height="31.14241" viewBox="0,0,27.48365,31.14241"><g transform="translate(-227.08051,-165.0191)"><g data-paper-data="{&quot;isPaintingLayer&quot;:true}" fill-rule="nonzero" stroke-width="0" stroke-linecap="butt" stroke-linejoin="miter" stroke-miterlimit="10" stroke-dasharray="" stroke-dashoffset="0" style="mix-blend-mode: normal"><path d="M228.20584,190.1846c0,0 -1.51646,-9.41073 -1.02862,-13.74703c0.4095,-3.63999 3.76197,-10.5494 3.76197,-10.5494c0,0 2.5155,-1.0405 5.15051,-0.84448c3.1725,0.23599 6.70026,1.76376 8.62495,2.44306c3.35218,1.18313 6.87652,5.69035 6.87652,5.69035c0,0 1.13904,2.54231 1.45774,5.39488c0.16029,1.43478 -0.64318,2.64556 -0.37744,4.26124c0.52306,3.18 1.725,6.41719 1.58653,8.07142c-0.1898,2.26756 -4.59031,5.25284 -4.59031,5.25284c0,0 -1.3775,0.04906 -3.24049,-0.19506c-3.95575,-0.51837 -10.45555,-1.64821 -13.10116,-2.3845c-2.12172,-0.59048 -5.1202,-3.39331 -5.1202,-3.39331z" fill="#bdbdbd" stroke="#000000"/><path d="M248.75657,184.7179c0,0 -3.20831,-3.52472 -3.89917,-5.44793c-0.43441,-1.20932 0.15347,-4.97929 0.15347,-4.97929c0,0 1.09005,0.00738 1.91149,0.4946c0.6939,0.41156 1.08014,1.31048 1.63782,1.35897c0.40658,0.03536 0.67941,-0.9362 1.24431,-1.15383c0.96078,-0.37016 2.1916,-0.09233 2.1916,-0.09233c0,0 1.20688,3.00322 1.33945,5.2569c0.06373,1.08335 -0.62025,2.62537 -0.201,4.61627c0.28722,1.36392 1.43319,2.59347 1.42961,3.89519c-0.00804,2.92748 -1.45446,5.16262 -1.45446,5.16262c0,0 -2.01042,0.63496 -2.64859,-0.70077c-0.40091,-0.83911 -0.83811,-4.54221 -1.16935,-6.47455c-0.31572,-1.84177 -0.53517,-1.93585 -0.53517,-1.93585z" fill="#e2e2e2" stroke="none"/></g></g></svg>