<svg version="1.1" xmlns="http://www.w3.org/2000/svg" xmlns:xlink="http://www.w3.org/1999/xlink" width="122.55525" height="118.11596" viewBox="0,0,122.55525,118.11596"><g transform="translate(-178.72237,-120.94202)"><g data-paper-data="{&quot;isPaintingLayer&quot;:true}" fill-rule="nonzero" stroke-width="0" stroke-linecap="butt" stroke-linejoin="miter" stroke-miterlimit="10" stroke-dasharray="" stroke-dashoffset="0" style="mix-blend-mode: normal"><path d="M178.72238,239.05798v-118.11596h122.55525v118.11596z" data-paper-data="{&quot;index&quot;:null}" fill="#4c8eff" stroke="none"/><path d="M209.95224,202.98443c0,0 -3.63289,-22.54466 -2.4642,-32.93287c0.98101,-8.7201 9.01231,-25.27253 9.01231,-25.27253c0,0 6.02622,-2.49265 12.33873,-2.02306c7.60015,0.56535 16.05138,4.22532 20.66224,5.85269c8.0306,2.83433 16.47362,13.632 16.47362,13.632c0,0 2.72873,6.09046 3.49221,12.92416c0.384,3.4372 -1.54083,6.33779 -0.9042,10.20837c1.25307,7.61812 4.13247,15.37325 3.80075,19.33616c-0.45468,5.43225 -10.99671,12.58391 -10.99671,12.58391c0,0 -3.29999,0.11754 -7.76305,-0.46731c-9.47652,-1.24181 -25.04769,-3.94852 -31.38559,-5.71238c-5.08286,-1.41457 -12.26613,-8.12914 -12.26613,-8.12914z" fill="#e4e4e4" stroke="#000000"/><path d="M258.83079,189.88821c0,0 -7.68595,-8.44395 -9.34098,-13.05126c-1.04069,-2.89708 0.36764,-11.92856 0.36764,-11.92856c0,0 2.61135,0.01769 4.57923,1.18487c1.66233,0.98594 2.5876,3.13942 3.92363,3.2556c0.97401,0.08471 1.62762,-2.24279 2.98091,-2.76416c2.30169,-0.88676 5.25028,-0.22118 5.25028,-0.22118c0,0 2.89124,7.19461 3.20883,12.59361c0.15267,2.59532 -1.48591,6.28944 -0.48153,11.05891c0.68808,3.26744 3.4334,6.21302 3.42483,9.33145c-0.01927,7.01317 -3.48437,12.36774 -3.48437,12.36774c0,0 -4.81623,1.52114 -6.34507,-1.67878c-0.96043,-2.0102 -2.0078,-10.88148 -2.80133,-15.51065c-0.75634,-4.4122 -1.28207,-4.63759 -1.28207,-4.63759z" fill="#ffffff" stroke="none"/></g></g></svg>