<svg version="1.1" xmlns="http://www.w3.org/2000/svg" xmlns:xlink="http://www.w3.org/1999/xlink" width="581.33058" height="234.61694" viewBox="0,0,581.33058,234.61694"><g transform="translate(108.18038,-53.57258)"><g data-paper-data="{&quot;isPaintingLayer&quot;:true}" fill="#000000" fill-rule="nonzero" stroke="none" stroke-width="0" stroke-linecap="butt" stroke-linejoin="miter" stroke-miterlimit="10" stroke-dasharray="" stroke-dashoffset="0" style="mix-blend-mode: normal"><path d="M213.06558,237.05714c0,0 5.24563,-3.45117 9.9029,-5.86297c9.56631,-4.95398 44.30814,-22.2106 44.30814,-22.2106l62.4395,28.5576z" data-paper-data="{&quot;index&quot;:null}"/><path d="M233.81593,150.0845v-6.24422h48.52835v6.24422z" data-paper-data="{&quot;index&quot;:null}"/><path d="M324.32899,193.64699v-6.24422h48.52835v6.24422z" data-paper-data="{&quot;index&quot;:null}"/><path d="M96.83626,198.9713v-6.24422h48.52835v6.24422z" data-paper-data="{&quot;index&quot;:null}"/><path d="M-101.64428,288.18952l-6.53609,-24.39979l42.41813,-1.83862c0,0 27.4974,2.30215 31.89544,1.09903c3.68192,-1.00722 3.12437,-20.44409 3.12437,-20.44409l-8.72854,-14.13179l1.27972,-8.16473c0,0 43.5967,-2.30885 58.25884,-2.58037c0.95384,-0.01766 10.59967,-2.17218 10.59967,-2.17218l-0.77766,-5.7102l12.39642,-1.01003l-0.79207,9.99712l8.82619,19.0298l13.76958,5.82519l-2.29964,18.54606l33.07328,24.97082z" data-paper-data="{&quot;index&quot;:null}"/><path d="M-84.41539,180.92518l-4.66671,-14.27539l121.72876,4.48762l-20.92655,-78.0729l-86.16354,-29.28756l2.7736,-10.20437l96.09892,29.92879l20.73336,86.636l-2.21348,10.32957l-3.75702,10.20114l-8.48494,-0.4222l-10.16703,-11.02124z" data-paper-data="{&quot;index&quot;:null}"/><path d="M427.66929,256.92777v-156.53021h9.81885v156.53021z" data-paper-data="{&quot;index&quot;:null}"/><path d="M463.33136,256.92777v-156.53021h9.81885v156.53021z" data-paper-data="{&quot;index&quot;:null}"/></g></g></svg>