<svg version="1.1" xmlns="http://www.w3.org/2000/svg" xmlns:xlink="http://www.w3.org/1999/xlink" width="254.96438" height="209.08629" viewBox="0,0,254.96438,209.08629"><g transform="translate(-183.76127,-3.77827)"><g data-paper-data="{&quot;isPaintingLayer&quot;:true}" fill-rule="nonzero" stroke-linejoin="miter" stroke-miterlimit="10" stroke-dasharray="" stroke-dashoffset="0" style="mix-blend-mode: normal"><path d="" fill="#ff0000" stroke="#ff0000" stroke-width="0" stroke-linecap="butt"/><path d="" fill="#ff0000" stroke="#ff0000" stroke-width="0" stroke-linecap="butt"/><path d="" fill="#ff0000" stroke="#ff0000" stroke-width="0" stroke-linecap="butt"/><path d="" fill="#ff0000" stroke="none" stroke-width="0.5" stroke-linecap="butt"/><path d="M385.71358,73.58785l-4.61314,17.79194l-0.44511,4.56995l-2.54171,-0.65902l3.17499,1.06982l1.30931,2.55886l-8.36978,3.74822l-7.33414,-2.14821l0.49658,-10.47497l12.39252,-26.87178l2.61878,-1.54039l4.98075,-0.18816l6.60663,5.90515" data-paper-data="{&quot;index&quot;:null}" fill="#ffffff" stroke="#ffc500" stroke-width="0" stroke-linecap="round"/><path d="M394.0319,65.99799l6.78532,-5.69892l4.97259,0.34144l2.5701,1.62029l11.55925,27.24062l0.17382,10.48527l-7.39681,1.92137l-8.25041,-4.00414l1.38749,-2.51734l3.20643,-0.97155l-2.56079,0.58044l-0.3042,-4.58149l-4.06313,-17.92554" data-paper-data="{&quot;index&quot;:null}" fill="#ffffff" stroke="#ffc500" stroke-width="0" stroke-linecap="round"/><path d="M409.83827,68.21784c0.08159,-0.4569 -15.4528,7.58239 -15.4528,7.58239c0,0 -5.17919,-2.70908 -7.64777,-4.00032c-2.31711,-1.21202 -6.73809,-3.52449 -6.73809,-3.52449l0.39585,-7.85682l6.06905,-6.62079l-4.68972,-10.75878l2.4828,-10.20706l9.93119,-7.72425l13.24157,4.41386l3.3104,9.37945l-1.93106,9.37946l-2.4828,3.3104l-3.3104,2.75866l4.41386,4.41386c0,0 1.55163,5.72161 2.3025,8.49046" fill="#ffffff" stroke="#ffc500" stroke-width="0" stroke-linecap="round"/><path d="M393.66633,3.77827l5.96762,5.4902l6.20632,-5.4902l2.86446,7.87726l7.87726,-2.62575l-8.11595,13.60616l-15.27711,-2.38704z" fill="#ffffff" stroke="#ffc500" stroke-width="0" stroke-linecap="round"/><path d="M419.91244,64.09303c2.66886,-1.62944 6.27274,-1.62114 9.14185,-0.2901c1.0698,0.4963 2.84642,1.8863 1.90408,3.10038c-0.16129,0.2078 -0.21887,0.51069 -0.43773,0.65661c-0.16686,0.11123 -1.20401,0.06055 -1.44711,-0.0804c-0.33142,-0.19216 -0.55565,-0.71786 -0.86007,-0.88122c-1.44262,-0.77411 -2.42585,-0.92297 -4.12863,-0.91688c-0.69634,0.00249 -3.00208,0.83462 -3.43502,1.33973c-0.23728,0.27682 -1.01994,0.95234 -1.41757,0.68725c-0.74815,-0.05079 -1.33929,-0.67376 -1.33929,-1.4348c0,-0.49145 0.24651,-0.92533 0.62264,-1.18473c0.35254,-0.38762 0.80874,-0.63677 1.39685,-0.99582z" fill="#ffffff" stroke="#ff0000" stroke-width="0" stroke-linecap="butt"/><path d="M418.16083,58.75507c2.71393,-0.96055 6.23266,-1.88094 9.06594,-1.25133c1.0075,0.22389 4.36825,1.31214 4.86459,1.69856c0.42197,0.32853 2.96242,2.19153 2.89907,3.26023c-0.00619,0.10443 -0.20965,0.89881 -0.79002,1.17977c-0.4925,0.23842 -1.36692,-0.01914 -1.46102,-0.05425c-0.68013,-0.25373 -1.66374,-1.62525 -2.30386,-1.98288c-2.00305,-1.11903 -7.66389,-1.07484 -8.00255,-0.99958c-1.01948,0.22655 -2.163,0.36831 -3.07838,0.82599c-0.29688,0.14845 -2.29805,1.71909 -2.9418,2.15646c-0.07172,0.04872 -0.15635,0.08942 -0.25006,0.12169c-0.17048,0.07121 -0.35758,0.11053 -0.55389,0.11053c-0.13093,0 -0.25779,-0.0175 -0.37833,-0.05028c-0.65071,-0.10998 -1.24073,-0.53363 -1.05931,-1.34999c-0.00032,-0.01258 -0.00049,-0.02521 -0.00049,-0.03788c0,-0.49815 0.25327,-0.93714 0.63807,-1.19523c0.52965,-0.61614 2.86094,-2.25804 3.35208,-2.43187z" fill="#ffffff" stroke="#ff0000" stroke-width="0" stroke-linecap="butt"/><path d="M416.18692,53.73566c0.17153,-0.08577 3.48645,-1.39091 7.09845,-1.63595c3.17064,-0.21509 6.58776,0.32933 8.78057,1.16811c2.06964,0.79167 3.92383,1.9191 5.46029,3.3831c0.50193,0.47826 1.34614,1.11581 1.1775,1.89618c-0.23588,1.09152 -1.21325,1.76219 -2.1941,1.11712c-0.69604,-0.45775 -1.11809,-1.2463 -1.81042,-1.69477c-1.60607,-1.04041 -4.55274,-2.35781 -6.45748,-2.80575c-0.50675,-0.11918 -3.41473,-0.45757 -4.2296,-0.36703c-1.1914,0.13238 -3.19224,0.28242 -4.28399,0.67621c-1.5378,0.55469 -3.12383,1.34718 -4.5713,2.02822c-0.80665,0.37953 -1.69611,1.69253 -2.35347,2.13913c-0.07172,0.04872 -0.15635,0.08942 -0.25006,0.12169c-0.17048,0.07121 -0.35758,0.11053 -0.55389,0.11053c-0.13093,0 -0.25779,-0.0175 -0.37833,-0.05028c-0.65071,-0.10998 -1.24073,-0.53363 -1.05931,-1.34999c-0.00032,-0.01258 -0.00049,-0.02521 -0.00049,-0.03788c0,-0.3991 0.16257,-0.76024 0.42511,-1.02079c1.06586,-1.77999 3.51605,-2.83559 5.20056,-3.67785z" fill="#ffffff" stroke="#ff0000" stroke-width="0" stroke-linecap="butt"/><path d="M424.60606,67.85369l0.46734,0.00175c1.18761,0.23469 2.20687,0.8169 2.60444,2.05126c0.18376,0.57055 0.00831,1.11042 -0.14153,1.65154c-0.1368,0.49401 -0.19156,1.07341 -0.50694,1.50086c-0.56172,0.76133 -1.61335,0.94854 -2.48339,0.95209c-1.19288,-0.01227 -2.59533,-0.75797 -3.11112,-1.90239c-0.42827,-0.95021 0.12931,-1.84166 0.53832,-2.65603c0.24185,-0.48155 0.49763,-0.96534 0.96783,-1.27992c0.51338,-0.34347 1.06826,-0.31892 1.65337,-0.31954c0,0 0.00418,0 0.0117,0.0004z" fill="#ffffff" stroke="none" stroke-width="0.5" stroke-linecap="butt"/><path d="M254.1071,191.90023l-45.94016,7.17812l-24.40567,-40.91541l23.6879,7.89596l8.61379,-23.6879l18.66317,16.50971l17.94537,-16.50971z" data-paper-data="{&quot;index&quot;:null}" fill="#e0e0e0" stroke="#ffc500" stroke-width="0" stroke-linecap="round"/><path d="M258.62308,193.03392c5.33619,-3.25795 12.54189,-3.24135 18.27847,-0.58003c2.13899,0.99232 5.69121,3.77152 3.80707,6.19899c-0.32249,0.41548 -0.43761,1.02109 -0.87521,1.31284c-0.33362,0.2224 -2.40733,0.12107 -2.89339,-0.16075c-0.66265,-0.38421 -1.11098,-1.43531 -1.71965,-1.76194c-2.88441,-1.54778 -4.85031,-1.84541 -8.2549,-1.83324c-1.39228,0.00498 -6.00244,1.66876 -6.86807,2.67869c-0.47442,0.55348 -2.0393,1.90413 -2.83433,1.37411c-1.49587,-0.10155 -2.67781,-1.34713 -2.67781,-2.86878c0,-0.98262 0.49288,-1.85013 1.24492,-2.36878c0.70488,-0.77502 1.61702,-1.27318 2.7929,-1.99107z" fill="#ffffff" stroke="#ff0000" stroke-width="0" stroke-linecap="butt"/><path d="M255.12087,182.36106c5.42631,-1.92055 12.46175,-3.7608 18.12669,-2.50194c2.01442,0.44765 8.734,2.62353 9.72639,3.39615c0.8437,0.65687 5.92314,4.38181 5.79648,6.51859c-0.01238,0.2088 -0.41918,1.79711 -1.57959,2.35886c-0.98472,0.4767 -2.73306,-0.03827 -2.9212,-0.10847c-1.35987,-0.50731 -3.32653,-3.24957 -4.6064,-3.96462c-4.00495,-2.23742 -15.32339,-2.14906 -16.00052,-1.99859c-2.03838,0.45297 -4.32476,0.73641 -6.155,1.65151c-0.59359,0.29682 -4.59478,3.4372 -5.88192,4.31169c-0.1434,0.09741 -0.31261,0.17879 -0.49998,0.24331c-0.34086,0.14238 -0.71496,0.221 -1.10746,0.221c-0.26179,0 -0.51543,-0.03499 -0.75644,-0.10053c-1.30105,-0.2199 -2.48075,-1.06695 -2.11801,-2.69921c-0.00064,-0.02515 -0.00098,-0.05041 -0.00098,-0.07574c0,-0.99601 0.5064,-1.87374 1.27577,-2.38978c1.059,-1.23193 5.72024,-4.51479 6.70224,-4.86235z" fill="#ffffff" stroke="#ff0000" stroke-width="0" stroke-linecap="butt"/><path d="M251.17418,172.32511c0.34296,-0.17149 6.9709,-2.78102 14.19284,-3.27096c6.33946,-0.43006 13.17175,0.65847 17.55611,2.33555c4.1381,1.58289 7.84541,3.8371 10.91745,6.76426c1.00357,0.95625 2.69151,2.23098 2.35433,3.79127c-0.47162,2.18242 -2.42581,3.52337 -4.38694,2.2336c-1.39168,-0.91524 -2.23554,-2.49189 -3.6198,-3.38857c-3.21122,-2.08022 -9.10287,-4.71427 -12.91126,-5.60989c-1.01321,-0.23829 -6.82751,-0.91488 -8.45678,-0.73385c-2.38212,0.26468 -6.38265,0.56468 -8.56553,1.35203c-3.07472,1.10906 -6.24587,2.69359 -9.13998,4.05528c-1.61284,0.75884 -3.39125,3.38409 -4.70559,4.27704c-0.1434,0.09741 -0.31261,0.17879 -0.49998,0.24331c-0.34086,0.14238 -0.71496,0.221 -1.10746,0.221c-0.26179,0 -0.51543,-0.03499 -0.75644,-0.10053c-1.30105,-0.2199 -2.48075,-1.06695 -2.11801,-2.69921c-0.00064,-0.02515 -0.00098,-0.05041 -0.00098,-0.07574c0,-0.79797 0.32505,-1.52004 0.84998,-2.041c2.13111,-3.55896 7.03009,-5.66956 10.39814,-7.35359z" fill="#ffffff" stroke="#ff0000" stroke-width="0" stroke-linecap="butt"/><path d="M268.00764,200.55309l0.93441,0.0035c2.37454,0.46925 4.41248,1.63333 5.20739,4.10135c0.36741,1.14077 0.01662,2.2202 -0.28298,3.30213c-0.27352,0.98774 -0.38301,2.14621 -1.01359,3.00086c-1.12312,1.52222 -3.22578,1.89654 -4.96536,1.90363c-2.38508,-0.02453 -5.18917,-1.51551 -6.22046,-3.80369c-0.85629,-1.89988 0.25855,-3.68227 1.07633,-5.31054c0.48356,-0.96282 0.99498,-1.93013 1.93511,-2.55911c1.02647,-0.68674 2.13591,-0.63766 3.30579,-0.6389c0,0 0.00836,0 0.02339,0.0008z" fill="#ffffff" stroke="none" stroke-width="0.5" stroke-linecap="butt"/></g></g></svg>