<svg version="1.1" xmlns="http://www.w3.org/2000/svg" xmlns:xlink="http://www.w3.org/1999/xlink" width="87.67421" height="36.57438" viewBox="0,0,87.67421,36.57438"><g transform="translate(-10.13031,-292.10288)"><g data-paper-data="{&quot;isPaintingLayer&quot;:true}" fill-rule="nonzero" stroke-linecap="butt" stroke-linejoin="miter" stroke-miterlimit="10" stroke-dasharray="" stroke-dashoffset="0" style="mix-blend-mode: normal"><path d="M10.13031,317.44205c0,-5.05387 0,-12.25294 0,-14.6083c0,-1.49106 1.88912,-3.12306 3.54574,-3.12306c2.75801,0 13.35436,0 18.1371,0c1.94675,0 3.25025,2.05152 3.25025,3.80782c0,2.79641 0,11.27997 0,15.97786c0,1.92652 -1.1384,3.2164 -3.70677,3.2164c-5.15026,0 -16.14116,0 -18.59358,0c-1.38525,0 -2.63273,-2.25292 -2.63273,-5.27071z" fill="#ffffff" stroke="#000000" stroke-width="0"/><text transform="translate(14.62455,320.69739) scale(0.66499,0.66499)" font-size="40" xml:space="preserve" data-paper-data="{&quot;index&quot;:null}" fill="#000000" fill-rule="nonzero" stroke="#000000" stroke-width="0" stroke-linecap="butt" stroke-linejoin="miter" stroke-miterlimit="10" stroke-dasharray="" stroke-dashoffset="0" font-family="Sans Serif" font-weight="normal" text-anchor="start" style="mix-blend-mode: normal"><tspan x="0" dy="0">↵</tspan></text><text transform="translate(44.27647,317.75543) scale(0.33713,0.33713)" font-size="40" xml:space="preserve" fill="#ffffff" fill-rule="nonzero" stroke="none" stroke-width="1" stroke-linecap="butt" stroke-linejoin="miter" stroke-miterlimit="10" stroke-dasharray="" stroke-dashoffset="0" font-family="&quot;Microsoft YaHei&quot;, &quot;微软雅黑&quot;, STXihei, &quot;华文细黑&quot;" font-weight="normal" text-anchor="start" style="mix-blend-mode: normal"><tspan x="0" dy="0">Go Back</tspan></text></g></g></svg>