<svg version="1.1" xmlns="http://www.w3.org/2000/svg" xmlns:xlink="http://www.w3.org/1999/xlink" width="723" height="393" viewBox="0,0,723,393"><defs><linearGradient x1="240" y1="-15.5" x2="240" y2="375.5" gradientUnits="userSpaceOnUse" id="color-1"><stop offset="0" stop-color="#000000"/><stop offset="1" stop-color="#001026"/></linearGradient></defs><g transform="translate(121.5,16.5)"><g data-paper-data="{&quot;isPaintingLayer&quot;:true}" fill-rule="nonzero" stroke-linecap="butt" stroke-linejoin="miter" stroke-miterlimit="10" stroke-dasharray="" stroke-dashoffset="0" style="mix-blend-mode: normal"><path d="M-120.5,375.5v-391h721v391z" fill="url(#color-1)" stroke="#000000" stroke-width="2"/><g fill="#ffffff"><path d="M205.89224,153.94116v18.85696h2.48943v-13.09342c0,-0.04483 0.00886,-0.08925 0.02606,-0.13068c0.01722,-0.04141 0.04241,-0.07906 0.07419,-0.1107c0.03185,-0.03171 0.06955,-0.05677 0.11104,-0.07376c0.04157,-0.01706 0.08598,-0.02571 0.13082,-0.02549h9.59121c0.09032,0 0.17701,0.03592 0.24086,0.09976c0.0639,0.0639 0.09975,0.15052 0.09975,0.24085v20.14044c0.00022,0.04421 -0.00834,0.08804 -0.02513,0.12888c-0.01684,0.04084 -0.04155,0.07797 -0.07283,0.10925c-0.03121,0.03121 -0.06834,0.05599 -0.10926,0.07276c-0.04086,0.01684 -0.08462,0.02542 -0.12882,0.0252h-22.36832c-0.04418,0.00022 -0.08799,-0.00836 -0.12886,-0.0252c-0.04087,-0.01679 -0.07799,-0.04157 -0.10923,-0.07276c-0.03125,-0.03128 -0.056,-0.06841 -0.07281,-0.10925c-0.01681,-0.04084 -0.02537,-0.08468 -0.02517,-0.12888v-32.94947c-0.00019,-0.04418 0.00836,-0.08799 0.02517,-0.12886c0.01681,-0.04087 0.04158,-0.07799 0.07281,-0.10923c0.03125,-0.03125 0.06836,-0.056 0.10923,-0.07281c0.04087,-0.01681 0.08466,-0.02537 0.12886,-0.02517h18.99687c0.98399,0.0004 1.92758,0.39145 2.62332,1.08725c0.69579,0.69578 1.08683,1.63933 1.08726,2.62331v3.34561c0,0.04406 -0.00872,0.08768 -0.02564,0.12838c-0.01684,0.0407 -0.04162,0.07761 -0.0729,0.10868c-0.03121,0.03114 -0.06827,0.05571 -0.10904,0.07249c-0.04076,0.0167 -0.08441,0.0252 -0.12847,0.02499z" stroke="none" stroke-width="1"/><path d="M261.60145,152.49929c0.10141,0.00078 0.19779,0.04157 0.26848,0.11339c0.07141,0.07184 0.1107,0.16882 0.1107,0.26978v26.97611c0,0.10125 -0.0407,0.19838 -0.11211,0.26994c-0.07141,0.07162 -0.16852,0.11182 -0.26992,0.11182h-7.20505c-0.04999,0.00022 -0.09997,-0.00958 -0.14639,-0.02863c-0.04641,-0.01907 -0.08925,-0.0472 -0.12425,-0.08263c-0.0357,-0.03549 -0.06426,-0.07761 -0.08354,-0.12403c-0.01927,-0.04642 -0.02929,-0.09619 -0.02929,-0.14646v-10.83813h-2.79347v10.83813c0,0.10125 -0.03999,0.19838 -0.1114,0.26994c-0.07213,0.07162 -0.16923,0.11182 -0.26992,0.11182h-5.79761c-0.1007,0 -0.19779,-0.0402 -0.26992,-0.11182c-0.07141,-0.07155 -0.1114,-0.16867 -0.1114,-0.26994v-26.97611c0,-0.05019 0.00928,-0.10004 0.02856,-0.14653c0.01927,-0.04649 0.04714,-0.08876 0.08284,-0.12432c0.03499,-0.03563 0.07711,-0.06384 0.12353,-0.08312c0.04641,-0.01927 0.0964,-0.0292 0.14639,-0.0292h1.1518c0.04214,-0.01829 11.87228,-0.01829 11.91441,0zM254.01365,159.66793c0,-0.59155 -0.47771,-1.06448 -1.31104,-1.06448c-0.9533,0 -1.42959,0.55506 -1.42959,1.24243v2.14575h2.73707z" stroke="none" stroke-width="1"/><path d="M273.29306,158.95927v14.8225h2.73706v-10.864c0,-0.07661 0.03071,-0.15018 0.08498,-0.20431c0.05426,-0.05419 0.12781,-0.08469 0.20422,-0.08469h7.77561c0.03785,-0.00014 0.07569,0.00713 0.11068,0.02157c0.0357,0.01442 0.06711,0.03571 0.09424,0.06256c0.02713,0.02685 0.04856,0.05875 0.06284,0.0939c0.01499,0.03521 0.02214,0.0729 0.02214,0.11097v17.09441c0,0.03192 -0.00572,0.06348 -0.01857,0.09289c-0.01214,0.02941 -0.03,0.0562 -0.05212,0.07861c-0.02285,0.0225 -0.04999,0.04027 -0.07927,0.05234c-0.02927,0.01207 -0.06141,0.01813 -0.09284,0.01791h-18.80382c-0.05284,0.00022 -0.10426,-0.00992 -0.15282,-0.02984c-0.04856,-0.01993 -0.09284,-0.04927 -0.12997,-0.08626c-0.03713,-0.03706 -0.06642,-0.08105 -0.08712,-0.12945c-0.02,-0.04842 -0.02998,-0.10039 -0.02998,-0.15282v-26.9442c0,-0.0525 0.00998,-0.1044 0.02998,-0.15282c0.02071,-0.04848 0.04999,-0.09248 0.08712,-0.12947c0.03713,-0.03699 0.08141,-0.06633 0.12997,-0.08626c0.04856,-0.01993 0.09997,-0.03007 0.15282,-0.02993h5.42557c0.03499,-0.01756 0.07283,-0.02692 0.1114,-0.02735h8.99524c1.1968,0 2.34504,0.4755 3.19122,1.32197c0.84618,0.84647 1.32176,1.99449 1.32176,3.19149v1.71693c0,0.06455 -0.0257,0.1264 -0.0707,0.17202c-0.04571,0.04563 -0.10783,0.07126 -0.17209,0.07126z" stroke="none" stroke-width="1"/><path d="M241.84433,152.48559v7.29946h-4.33374v20.40052h-8.36401v-20.40052h-3.83532c-1.10039,-0.00121 -2.1558,-0.4393 -2.93416,-1.21801c-0.77763,-0.7787 -1.21464,-1.8344 -1.21464,-2.93507v-3.14638z" stroke="none" stroke-width="1"/><path d="M261.58133,188.71371c5.76158,3.45046 3.98568,19.83067 -0.44773,22.62212c-4.43341,2.79145 -16.38142,1.39035 -16.38142,1.39035c-0.04467,0.0004 -0.08889,-0.00886 -0.13034,-0.02717c-0.04137,-0.01831 -0.07903,-0.04542 -0.11083,-0.07964c-0.0318,-0.03422 -0.05714,-0.07497 -0.07451,-0.11993c-0.01742,-0.04495 -0.02655,-0.09316 -0.02687,-0.14196c0,0 0,-6.77244 0,-10.58063c0,-4.46835 0,-14.56697 0,-14.56697c0.00031,-0.0488 0.00944,-0.09703 0.02687,-0.14196c0.01737,-0.04493 0.04271,-0.08568 0.07451,-0.11992c0.0318,-0.03422 0.06946,-0.06129 0.11083,-0.07961c0.04144,-0.01831 0.08566,-0.02756 0.13034,-0.0272c0,0 11.06757,-1.57799 16.82916,1.87249zM252.33107,194.90077l-0.22399,10.16197c0,0 3.32596,-0.31894 4.57546,-2.25117c1.30257,-2.01427 1.03525,-5.67323 -0.50117,-7.1054c-0.7279,-0.67851 -3.85031,-0.8054 -3.85031,-0.8054z" data-paper-data="{&quot;index&quot;:null}" stroke="none" stroke-width="1"/><path d="M220.228,213.44038c0,0 0.05572,-10.92631 0.07099,-13.92024c0.00727,-1.42591 1.55603,-3.15126 2.85264,-3.14598c2.8283,0.01153 13.49657,0.05499 13.49657,0.05499l0.06663,-2.86907c0,0 -11.04854,0.1298 -13.98778,0.16793c-1.51823,0.01971 -2.42745,-1.44361 -2.43871,-2.41574c-0.01638,-1.41421 -0.06033,-5.2073 -0.06033,-5.2073c0,0 14.42276,0 17.94768,0c1.47213,0 3.13342,2.08374 3.1358,3.72796c0.00464,3.21432 0.02057,14.24696 0.02057,14.24696l-16.30409,0.16586l-0.00663,2.75172l16.059,0.06159c0,0 0.08164,2.3078 0.12044,3.40458c0.03628,1.02556 -1.17786,2.97678 -2.39902,2.97678c-3.32564,0 -18.57376,0 -18.57376,0z" data-paper-data="{&quot;index&quot;:null}" stroke="#000000" stroke-width="0"/></g><text transform="translate(109.06152,264.48798) scale(0.30055,0.30055)" font-size="40" xml:space="preserve" fill-opacity="0.10484" fill="#ffffff" fill-rule="nonzero" stroke="none" stroke-width="1" stroke-linecap="butt" stroke-linejoin="miter" stroke-miterlimit="10" stroke-dasharray="" stroke-dashoffset="0" font-family="Sans Serif" font-weight="normal" text-anchor="start" style="mix-blend-mode: normal"><tspan x="0" dy="0">This is an early build, Bugs are to be expected</tspan></text></g></g></svg>