<svg version="1.1" xmlns="http://www.w3.org/2000/svg" xmlns:xlink="http://www.w3.org/1999/xlink" width="147.04988" height="114.51516" viewBox="0,0,147.04988,114.51516"><g transform="translate(-166.58182,-123.74783)"><g data-paper-data="{&quot;isPaintingLayer&quot;:true}" fill="#ff7a00" fill-rule="nonzero" stroke-linecap="butt" stroke-linejoin="miter" stroke-miterlimit="10" stroke-dasharray="" stroke-dashoffset="0" style="mix-blend-mode: normal"><path d="M215.51974,186.53935c13.91831,-8.49761 32.71269,-8.45433 47.67531,-1.51296c5.57904,2.58819 14.84428,9.83717 9.92988,16.16865c-0.84113,1.08367 -1.14141,2.66329 -2.28282,3.42423c-0.87017,0.58012 -6.27899,0.31579 -7.54673,-0.41926c-1.72834,-1.00212 -2.89773,-3.7437 -4.48529,-4.59559c-7.52332,-4.03704 -12.65092,-4.81334 -21.53106,-4.78159c-3.63142,0.01298 -15.65603,4.35263 -17.91384,6.98675c-1.23739,1.44362 -5.319,4.96651 -7.39269,3.58405c-3.90168,-0.26487 -6.98448,-3.5137 -6.98448,-7.48256c0,-2.56296 1.28558,-4.82566 3.24707,-6.17843c1.83851,-2.02141 4.21765,-3.32076 7.28466,-5.19328z" stroke="#ff0000" stroke-width="0"/><path d="M206.38506,158.7015c14.15331,-5.0093 32.50372,-9.80922 47.27941,-6.52574c5.25416,1.16759 22.78074,6.84287 25.3691,8.85812c2.20062,1.71336 15.44917,11.42895 15.11881,17.00232c-0.03228,0.54463 -1.09331,4.68733 -4.12003,6.15259c-2.56841,1.24339 -7.12859,-0.09984 -7.61933,-0.28291c-3.54695,-1.32324 -8.6765,-8.47581 -12.0148,-10.3408c-10.44598,-5.8358 -39.96764,-5.60532 -41.73375,-5.21285c-5.31665,1.18148 -11.2802,1.92074 -16.05392,4.3076c-1.54829,0.77415 -11.98441,8.96513 -15.34169,11.24605c-0.37401,0.2541 -0.81538,0.46638 -1.30407,0.63461c-0.88905,0.37135 -1.86485,0.57645 -2.88856,0.57645c-0.68284,0 -1.34437,-0.09126 -1.97306,-0.26224c-3.39346,-0.57353 -6.47047,-2.78292 -5.52439,-7.04026c-0.0017,-0.06563 -0.00255,-0.13147 -0.00255,-0.19751c0,-2.59783 1.3208,-4.88718 3.32751,-6.23314c2.76216,-3.21324 14.91999,-11.77577 17.48132,-12.6823z" stroke="#ff0000" stroke-width="0"/><path d="M196.09094,132.52503c0.89453,-0.44726 18.18208,-7.2537 37.01882,-8.53157c16.53509,-1.12172 34.35555,1.71743 45.79117,6.09174c10.79332,4.12863 20.46302,10.00821 28.47574,17.64307c2.61756,2.49413 7.02022,5.81897 6.14075,9.88866c-1.23012,5.69234 -6.32716,9.18991 -11.44234,5.82585c-3.62989,-2.38725 -5.83093,-6.49948 -9.44147,-8.83838c-8.37571,-5.42577 -23.74277,-12.29606 -33.67618,-14.63221c-2.64273,-0.62152 -17.80803,-2.38627 -22.05766,-1.91409c-6.21326,0.69036 -16.64768,1.47281 -22.34133,3.52651c-8.01974,2.89271 -16.29097,7.02564 -23.83964,10.5773c-4.20674,1.97928 -8.84531,8.82665 -12.27346,11.15572c-0.37401,0.2541 -0.81538,0.46638 -1.30407,0.63461c-0.88905,0.37135 -1.86485,0.57645 -2.88856,0.57645c-0.68284,0 -1.34437,-0.09126 -1.97306,-0.26224c-3.39346,-0.57353 -6.47047,-2.78292 -5.52439,-7.04026c-0.0017,-0.06563 -0.00255,-0.13147 -0.00255,-0.19751c0,-2.08135 0.84782,-3.96468 2.21695,-5.32348c5.55856,-9.28278 18.33636,-14.78774 27.12129,-19.1802z" stroke="#ff0000" stroke-width="0"/><path d="M239.99717,206.15133l2.43718,0.0091c6.19347,1.22391 11.50897,4.2602 13.58234,10.69745c0.95837,2.97547 0.04331,5.79093 -0.7381,8.61285c-0.7134,2.5763 -0.99899,5.59786 -2.64376,7.82707c-2.92943,3.97035 -8.4137,4.9467 -12.95101,4.96519c-6.22089,-0.06397 -13.53478,-3.95287 -16.22468,-9.92106c-2.23342,-4.95538 0.67435,-9.60435 2.80734,-13.85138c1.26126,-2.51131 2.59514,-5.03428 5.04728,-6.67486c2.6773,-1.79122 5.57104,-1.66317 8.62241,-1.66648c0,0 0.02174,0 0.061,0.00211z" stroke="none" stroke-width="0.5"/></g></g></svg>