<svg version="1.1" xmlns="http://www.w3.org/2000/svg" xmlns:xlink="http://www.w3.org/1999/xlink" width="111.97728" height="60.59429" viewBox="0,0,111.97728,60.59429"><g transform="translate(-193.12843,-149.77895)"><g data-paper-data="{&quot;isPaintingLayer&quot;:true}" fill="#ff9400" stroke-miterlimit="10" stroke-dasharray="" stroke-dashoffset="0" style="mix-blend-mode: normal"><g fill-rule="evenodd" stroke-width="0"><path d="M245.0991,149.85232c0.22013,-0.14675 0.58701,-0.07337 0.66038,0.22013l1.90779,7.85132c0,0 4.69612,3.44871 6.09028,5.87015c2.34806,4.03572 2.42144,7.33768 2.42144,7.33768c0,0 5.20975,1.54091 6.09028,5.72338c0.88052,4.18248 -2.34806,12.10718 -16.1429,14.82211c-13.79484,2.71494 -24.87474,-1.02728 -30.08448,-9.39222c-5.20975,-8.36496 3.00846,-18.34421 2.56819,-17.75718l-1.54091,-13.13444c-0.07337,-0.2935 0.2935,-0.51363 0.58701,-0.36688l8.87859,5.79677c0,0 3.30196,-1.2474 6.75066,-1.39416c2.05455,-0.14675 3.81559,0 5.50325,0.2935z" stroke="#001026" stroke-linecap="butt" stroke-linejoin="miter"/><path d="M255.95886,171.4251c0,0 5.063,1.32078 5.94352,5.50325c0.88052,4.18248 -2.64156,11.74028 -16.28965,14.38185c-17.75718,3.66884 -26.19552,-6.89741 -21.27927,-14.67537c4.91624,-7.85132 13.35458,-1.17403 19.51822,-1.61429c5.28313,-0.36688 5.87015,-4.98962 12.10718,-3.59547z" stroke="none" stroke-linecap="butt" stroke-linejoin="miter"/><path d="M232.84518,179.27641c0,-0.2935 0.2935,-0.51363 0.58701,-0.44026c1.39416,0.51363 5.3565,1.68766 9.75912,1.98118c3.96235,0.22013 6.3104,0 7.41106,-0.22013c0.36688,-0.07337 0.66038,0.2935 0.51363,0.66038c-0.66038,1.98118 -3.44871,7.48443 -11.15327,7.04418c-6.67729,-0.73377 -7.33768,-5.42988 -7.11755,-9.02535z" stroke="#001026" stroke-linecap="round" stroke-linejoin="round"/><path d="M269.4602,172.23225c-3.44871,2.78832 -8.73184,2.86169 -8.73184,2.86169" stroke="#001026" stroke-linecap="round" stroke-linejoin="round"/><path d="M268.5063,180.45044c-4.62274,0.36688 -7.48443,-1.02728 -7.48443,-1.02728" stroke="#001026" stroke-linecap="round" stroke-linejoin="round"/><path d="M243.5582,173.11276c1.54091,0 3.15521,0.14675 3.22857,0.66038c0.07337,1.02728 -1.02728,3.08184 -2.20131,3.15521c-1.32078,0.14675 -4.4026,-1.68766 -4.4026,-2.86169c-0.07337,-0.88052 1.90779,-0.9539 3.37534,-0.9539z" stroke="#001026" stroke-linecap="round" stroke-linejoin="round"/><path d="M210.53863,172.0121c0,0 6.3104,2.05455 8.87859,4.32924" stroke="#001026" stroke-linecap="round" stroke-linejoin="round"/><path d="M219.63736,178.90953c-3.15521,1.2474 -8.58509,0.44026 -8.58509,0.44026" stroke="#001026" stroke-linecap="round" stroke-linejoin="round"/><g><path d="M252.21665,164.52767c2.12793,3.30196 2.20131,7.04418 0.14675,8.36496c-2.05455,1.32078 -5.42988,-0.22013 -7.63119,-3.52209c-2.12793,-3.30196 -2.20131,-7.04418 -0.14675,-8.36496c2.05455,-1.39416 5.50325,0.22013 7.63119,3.52209z" stroke="#001026" stroke-linecap="round" stroke-linejoin="round"/><path d="M251.92314,168.71016c0,0.80715 -0.58701,1.46753 -1.32078,1.46753c-0.73377,0 -1.32078,-0.66038 -1.32078,-1.46753c0,-0.80715 0.58701,-1.46753 1.32078,-1.46753c0.73377,0 1.32078,0.66038 1.32078,1.46753" stroke="none" stroke-linecap="butt" stroke-linejoin="miter"/></g><g><path d="M234.01921,166.58223c2.20131,3.22857 2.05455,7.19093 0.07337,8.58509c-2.42144,1.39416 -5.65002,0.36688 -7.85132,-2.86169c-2.27468,-3.22857 -2.42144,-7.41106 -0.14675,-9.02535c2.27468,-1.68766 5.72338,0.07337 7.92469,3.30196z" stroke="#001026" stroke-linecap="round" stroke-linejoin="round"/><path d="M233.57895,170.83809c0,0.80715 -0.58701,1.46753 -1.32078,1.46753c-0.73377,0 -1.32078,-0.66038 -1.32078,-1.46753c0,-0.80715 0.58701,-1.46753 1.32078,-1.46753c0.73377,0.07337 1.32078,0.66038 1.32078,1.46753" stroke="none" stroke-linecap="butt" stroke-linejoin="miter"/></g></g><text transform="translate(193.28067,206.56724) scale(0.30448,0.30448)" font-size="40" xml:space="preserve" fill="#ff9400" fill-rule="nonzero" stroke="none" stroke-width="1" stroke-linecap="butt" stroke-linejoin="miter" stroke-miterlimit="10" stroke-dasharray="" stroke-dashoffset="0" font-family="&quot;ヒラギノ角ゴ Pro W3&quot;, &quot;Hiragino Kaku Gothic Pro&quot;, Osaka, &quot;メイリオ&quot;, Meiryo, &quot;ＭＳ Ｐゴシック&quot;, &quot;MS PGothic&quot;" font-weight="normal" text-anchor="start" style="mix-blend-mode: normal"><tspan x="0" dy="0">Made with scratch</tspan></text></g></g></svg>