<svg version="1.1" xmlns="http://www.w3.org/2000/svg" xmlns:xlink="http://www.w3.org/1999/xlink" width="354.53244" height="378.95957" viewBox="0,0,354.53244,378.95957"><defs><linearGradient x1="67.04812" y1="371.11641" x2="67.04812" y2="385.94156" gradientTransform="translate(-132.06443,-1237.57861) scale(3.23771,3.23771)" gradientUnits="userSpaceOnUse" id="color-1"><stop offset="0" stop-color="#9966ff"/><stop offset="1" stop-color="#66ebff"/></linearGradient><linearGradient x1="-14.88877" y1="161.57897" x2="-14.88877" y2="420.94108" gradientUnits="userSpaceOnUse" id="color-2"><stop offset="0" stop-color="#000000" stop-opacity="0.87903"/><stop offset="1" stop-color="#000e12"/></linearGradient></defs><g transform="translate(-3.93379,-7.13971)"><g data-paper-data="{&quot;isPaintingLayer&quot;:true}" fill-rule="nonzero" stroke-linecap="butt" stroke-linejoin="miter" stroke-miterlimit="10" stroke-dasharray="" stroke-dashoffset="0" style="mix-blend-mode: normal"><path d="M325.68079,23.3737v-6.32089h22.68867v6.32089z" fill="#000000" stroke="none" stroke-width="0"/><path d="M136.21597,23.36116v31.85964h4.20598v-22.12189c0,-0.07576 0.01497,-0.1508 0.04404,-0.22079c0.02907,-0.06997 0.07167,-0.13355 0.12535,-0.187c0.0538,-0.05357 0.11751,-0.09592 0.1876,-0.12463c0.07021,-0.02883 0.14526,-0.04343 0.22102,-0.04307h16.20476c0.15261,0 0.29909,0.06068 0.40695,0.16855c0.10798,0.10798 0.16854,0.25433 0.16854,0.40694v34.02814c0.00036,0.07468 -0.01411,0.14877 -0.04247,0.21777c-0.02846,0.06902 -0.07022,0.13175 -0.12306,0.18459c-0.05272,0.05272 -0.11546,0.09458 -0.18459,0.12294c-0.06902,0.02846 -0.14297,0.04294 -0.21765,0.04259h-37.79222c-0.07465,0.00036 -0.14865,-0.01411 -0.21771,-0.04259c-0.06905,-0.02836 -0.13179,-0.07022 -0.18459,-0.12294c-0.05279,-0.05284 -0.09461,-0.11558 -0.12301,-0.18459c-0.02841,-0.06902 -0.04287,-0.14309 -0.04253,-0.21777v-55.66954c-0.00034,-0.07465 0.01411,-0.14865 0.04253,-0.21769c0.02841,-0.06905 0.07023,-0.13177 0.12301,-0.18457c0.05279,-0.05279 0.11552,-0.09461 0.18459,-0.12302c0.06905,-0.02841 0.14303,-0.04287 0.21771,-0.04252h32.09602c1.66251,0.00068 3.25673,0.6614 4.4322,1.83694c1.17559,1.17555 1.83625,2.76974 1.83697,4.4322v5.65252c0,0.07444 -0.01472,0.14815 -0.04331,0.21691c-0.02846,0.06876 -0.07034,0.13114 -0.12318,0.18362c-0.05272,0.0526 -0.11534,0.09411 -0.18423,0.12246c-0.06889,0.02823 -0.14261,0.04259 -0.21704,0.04222z" fill="#ffffff" stroke="#000000" stroke-width="7.5"/><path d="M196.01689,20.79445c0.1157,-0.00102 0.23031,0.02079 0.33745,0.06418c0.10726,0.04339 0.20474,0.10748 0.28713,0.18864c0.08228,0.08115 0.14779,0.17776 0.1928,0.28428c0.04487,0.10652 0.0684,0.22086 0.06913,0.33648v45.15595c-0.00109,0.11533 -0.02473,0.22947 -0.06985,0.33565c-0.04512,0.10629 -0.11064,0.20256 -0.19304,0.28339c-0.08228,0.08095 -0.17976,0.14478 -0.28665,0.18797c-0.10701,0.04319 -0.22151,0.06504 -0.33697,0.06394h-32.43512c-0.08843,0.00072 -0.17602,-0.01605 -0.25807,-0.04923c-0.08192,-0.03317 -0.15648,-0.08228 -0.21945,-0.14429c-0.06297,-0.06202 -0.11316,-0.13585 -0.14755,-0.21729c-0.03451,-0.08144 -0.0526,-0.16879 -0.05321,-0.25722v-45.56442c0.0006,-0.0884 0.0187,-0.17581 0.05321,-0.25722c0.03439,-0.08142 0.08457,-0.15525 0.14755,-0.21729c0.06297,-0.06203 0.13755,-0.11104 0.21945,-0.14425c0.08204,-0.0332 0.16962,-0.04995 0.25807,-0.04928zM181.97305,41.62653c-1.74456,-5.63963 -0.0386,-11.77777 -2.24307,-12.2583c-2.20445,-0.48042 -8.69452,5.16946 -7.72851,13.97462c0.9969,9.0748 12.71554,12.99823 15.457,10.79111c1.74466,-2.20699 -3.8257,-7.14264 -5.48544,-12.50744z" fill="#ffffff" stroke="#000000" stroke-width="7.5"/><path d="M234.83181,45.62951v19.27005c-0.0041,0.7421 -0.30174,1.45247 -0.82799,1.97571c-0.52614,0.52336 -1.23819,0.81714 -1.98029,0.81714h-12.18893c-0.1274,0 -0.24962,-0.05067 -0.33974,-0.14079c-0.09,-0.09012 -0.14067,-0.21221 -0.14067,-0.33974v-17.47133h-4.75324v17.2889c0.00036,0.08746 -0.01665,0.17421 -0.04995,0.25505c-0.03342,0.08095 -0.0824,0.15443 -0.14417,0.21632c-0.06189,0.06189 -0.13537,0.11088 -0.21632,0.14417c-0.08084,0.0333 -0.16758,0.05031 -0.25504,0.04995h-11.39496c-0.17626,-0.00072 -0.34517,-0.07107 -0.4698,-0.1957c-0.12463,-0.12463 -0.19496,-0.29353 -0.1957,-0.4698v-45.53872c0.00072,-0.17627 0.07107,-0.34514 0.1957,-0.4698c0.12463,-0.12465 0.29353,-0.19498 0.4698,-0.19566h4.05952c0.06828,-0.03212 0.14297,-0.04879 0.21837,-0.04881h27.35567c0.10834,0 0.21222,0.04303 0.28883,0.11965c0.07661,0.07662 0.11968,0.18052 0.11968,0.28887v16.2356c0,0.31332 -0.06177,0.62362 -0.18169,0.91305c-0.12004,0.28944 -0.29583,0.55232 -0.51758,0.77383c-0.22163,0.22139 -0.48475,0.39705 -0.77443,0.51673c-0.28954,0.11956 -0.59986,0.18109 -0.91318,0.18073h-5.22858v3.76913h4.77121c1.42605,0 3.09351,0.63207 3.09351,2.05545zM219.2077,32.86771c0,-0.9969 -0.80675,-1.79861 -2.2147,-1.79861c-1.61353,0 -2.41776,0.94044 -2.41776,2.09913v3.64595h4.62475z" fill="#ffffff" stroke="#000000" stroke-width="7.5"/><path d="M240.49763,20.82524h13.29888c0.37159,0 0.672,0.30139 0.672,0.67317v45.52329c0,0.37184 -0.30041,0.6732 -0.672,0.6732h-13.29888c-0.3728,0 -0.6732,-0.30138 -0.6732,-0.6732v-45.52329c0,-0.37178 0.30041,-0.67317 0.6732,-0.67317z" fill="#ffffff" stroke="#000000" stroke-width="7.5"/><path d="M287.44124,57.16587v10.11803c0,0.10859 -0.04222,0.2127 -0.11944,0.2898c-0.07601,0.07696 -0.18097,0.12053 -0.28955,0.12125h-27.09844c-0.08808,0 -0.17614,-0.0175 -0.25819,-0.05152c-0.08204,-0.0339 -0.15563,-0.08373 -0.21837,-0.14659c-0.06274,-0.06274 -0.1122,-0.1373 -0.14598,-0.21922c-0.03378,-0.08204 -0.05067,-0.16975 -0.05067,-0.25843v-45.52073c0,-0.17854 0.07118,-0.34976 0.19786,-0.47601c0.12548,-0.12624 0.29679,-0.19716 0.47535,-0.19716h13.29645c0.08928,-0.00034 0.17614,0.01682 0.25818,0.0505c0.08204,0.03367 0.15684,0.08321 0.21958,0.14575c0.06274,0.06255 0.11221,0.13686 0.14718,0.2187c0.03378,0.08185 0.05067,0.16959 0.05067,0.25821v35.25623h13.12635c0.05429,0 0.10737,0.01074 0.15805,0.03137c0.04946,0.02075 0.09411,0.05103 0.13271,0.08927c0.0374,0.03812 0.06756,0.08349 0.08808,0.13344c0.0205,0.04983 0.03016,0.10316 0.03016,0.15708z" fill="#ffffff" stroke="#000000" stroke-width="7.5"/><path d="M320.51653,57.16587v10.11803c0,0.10895 -0.04343,0.21355 -0.12064,0.29064c-0.07722,0.0771 -0.18217,0.12041 -0.29075,0.12041h-27.09603c-0.17976,0 -0.35108,-0.07119 -0.47776,-0.19786c-0.12668,-0.1268 -0.19786,-0.29861 -0.19786,-0.47789v-45.52073c0,-0.08862 0.0169,-0.17637 0.05189,-0.25821c0.03378,-0.08184 0.08325,-0.15615 0.14598,-0.2187c0.06274,-0.06255 0.13753,-0.11208 0.21958,-0.14575c0.08204,-0.03369 0.17011,-0.05085 0.25818,-0.05051h13.29888c0.17857,0 0.34988,0.07093 0.47656,0.19716c0.12548,0.12625 0.19665,0.29747 0.19665,0.47601v35.25623h13.11911c0.05429,-0.00097 0.10858,0.00892 0.15925,0.0292c0.05067,0.02015 0.09651,0.05031 0.13513,0.08867c0.0386,0.03824 0.06999,0.08397 0.09049,0.1344c0.0205,0.05031 0.03136,0.10436 0.03136,0.15889z" fill="#ffffff" stroke="#000000" stroke-width="7.5"/><path d="M212.29607,79.6937c0.17132,0.00133 0.33419,0.07022 0.45362,0.19159c0.12064,0.12137 0.187,0.28521 0.187,0.45581v45.57728c0,0.17108 -0.06877,0.33515 -0.18941,0.45604c-0.12064,0.12101 -0.28473,0.18893 -0.45605,0.18893h-12.17324c-0.08445,0.00036 -0.1689,-0.01616 -0.24732,-0.04838c-0.07842,-0.03221 -0.1508,-0.07975 -0.20993,-0.1396c-0.06032,-0.05996 -0.10858,-0.13114 -0.14115,-0.20956c-0.03257,-0.07842 -0.04947,-0.16251 -0.04947,-0.24744v-18.3115h-4.71969v18.3115c0,0.17108 -0.06756,0.33515 -0.18821,0.45604c-0.12186,0.12101 -0.28594,0.18893 -0.45605,0.18893h-9.7953c-0.17011,0 -0.33419,-0.06793 -0.45605,-0.18893c-0.12064,-0.12089 -0.18821,-0.28496 -0.18821,-0.45604v-45.57728c0,-0.08481 0.01569,-0.16902 0.04826,-0.24757c0.03257,-0.07854 0.07963,-0.14997 0.13995,-0.21004c0.05912,-0.0602 0.1303,-0.10786 0.20872,-0.14043c0.07842,-0.03257 0.16288,-0.04935 0.24732,-0.04935h1.94603c0.07118,-0.03088 20.05872,-0.03088 20.12988,0zM199.47619,91.80545c0,-0.99943 -0.80711,-1.79849 -2.21507,-1.79849c-1.61064,0 -2.41535,0.93779 -2.41535,2.09914v3.62532h4.62438z" fill="#ffffff" stroke="#000000" stroke-width="7.5"/><path d="M232.04957,90.60814v25.04323h4.62438v-18.35518c0,-0.12945 0.05188,-0.25372 0.14356,-0.34517c0.0917,-0.09157 0.21596,-0.14309 0.34505,-0.14309h13.13721c0.06394,-0.00024 0.12789,0.01206 0.187,0.03643c0.06032,0.02438 0.11341,0.06032 0.15925,0.10569c0.04584,0.04536 0.08204,0.0993 0.10617,0.15865c0.02535,0.05947 0.03741,0.12318 0.03741,0.18749v28.88172c0,0.05393 -0.00965,0.10726 -0.03137,0.15695c-0.0205,0.0497 -0.05067,0.09495 -0.08806,0.13283c-0.0386,0.03801 -0.08446,0.06805 -0.13392,0.08844c-0.04946,0.02039 -0.10376,0.03064 -0.15684,0.03028h-31.76988c-0.08928,0.00036 -0.17614,-0.01678 -0.25819,-0.05044c-0.08204,-0.03366 -0.15684,-0.08324 -0.21957,-0.14574c-0.06274,-0.06262 -0.11221,-0.13693 -0.1472,-0.21873c-0.03378,-0.0818 -0.05067,-0.16963 -0.05067,-0.25818v-45.52336c0,-0.08867 0.01689,-0.17638 0.05067,-0.25818c0.03498,-0.08192 0.08446,-0.15624 0.1472,-0.21873c0.06274,-0.0625 0.13753,-0.11208 0.21957,-0.14574c0.08204,-0.03366 0.1689,-0.0508 0.25819,-0.05055h9.16674c0.05912,-0.02968 0.12307,-0.04548 0.18822,-0.04621h15.19785c2.02204,0 3.96203,0.80339 5.3917,2.23353c1.42966,1.43015 2.23317,3.36978 2.23317,5.39218v2.90083c0,0.10907 -0.04344,0.21354 -0.11944,0.29064c-0.07722,0.0771 -0.18217,0.1204 -0.29075,0.1204z" fill="#ffffff" stroke="#000000" stroke-width="7.5"/><path d="M348.1627,20.8304h5.90927c0.08445,0 0.1689,0.01676 0.24733,0.04933c0.07842,0.03257 0.1496,0.0803 0.20872,0.14045c0.06032,0.06016 0.10738,0.13156 0.13995,0.2101c0.03257,0.07854 0.04945,0.16269 0.04826,0.24757v45.57218c0,0.17095 -0.06756,0.33502 -0.18821,0.45592c-0.12186,0.12101 -0.28594,0.18894 -0.45605,0.18894h-12.17324c-0.08566,0.00036 -0.17011,-0.01605 -0.24854,-0.04838c-0.07842,-0.03221 -0.1496,-0.07962 -0.20992,-0.13958c-0.06032,-0.05996 -0.10737,-0.13115 -0.13995,-0.20957c-0.03257,-0.07842 -0.04946,-0.16251 -0.04946,-0.24732v-18.31162h-4.71728v18.31162c0,0.17095 -0.06756,0.33502 -0.18942,0.45592c-0.12064,0.12101 -0.28473,0.18894 -0.45605,0.18894h-9.7941c-0.17132,0 -0.3354,-0.06793 -0.45604,-0.18894c-0.12064,-0.12089 -0.18821,-0.28497 -0.18821,-0.45592v-45.57732c-0.0012,-0.08491 0.01569,-0.16904 0.04827,-0.24757c0.03136,-0.07854 0.07963,-0.14994 0.13874,-0.2101c0.06032,-0.06016 0.13151,-0.10789 0.20993,-0.14045c0.07842,-0.03257 0.16287,-0.04934 0.24733,-0.04934M341.25568,32.93712c0,-0.99943 -0.80713,-1.7986 -2.21507,-1.7986c-1.61063,0 -2.41414,0.9379 -2.41414,2.09913v3.63822h4.62438z" fill="#ffffff" stroke="#000000" stroke-width="7.5"/><path d="M178.91559,79.67055v12.33275h-7.32204v34.46753h-14.13135v-34.46753h-6.47993c-1.85916,-0.00206 -3.64231,-0.74221 -4.95737,-2.05786c-1.31385,-1.31565 -2.0522,-3.09929 -2.0522,-4.95893v-5.31593z" fill="#ffffff" stroke="#000000" stroke-width="7.5"/><path d="M333.40801,83.74393c9.73443,5.96346 6.73396,34.27353 -0.75646,39.09799c-7.49044,4.82447 -27.67712,2.40295 -27.67712,2.40295c-0.07546,0.0007 -0.15019,-0.01531 -0.22021,-0.04696c-0.06989,-0.03165 -0.13352,-0.07849 -0.18725,-0.13764c-0.05374,-0.05915 -0.09657,-0.12959 -0.12591,-0.20726c-0.02944,-0.07768 -0.04489,-0.16101 -0.0454,-0.24535c0,0 0,-11.70485 0,-18.28656c0,-7.72269 0,-25.17619 0,-25.17619c0.00051,-0.08432 0.01595,-0.16769 0.0454,-0.24535c0.02935,-0.07767 0.07217,-0.1481 0.12591,-0.20726c0.05374,-0.05916 0.11736,-0.10591 0.18725,-0.13759c0.07,-0.03167 0.14474,-0.04764 0.22021,-0.047c0,0 18.69914,-2.72725 28.43357,3.23622zM317.77932,94.43711l-0.37844,17.56302c0,0 5.61933,-0.55124 7.73044,-3.89073c2.20074,-3.48127 1.74911,-9.80506 -0.84674,-12.2803c-1.22981,-1.17268 -6.50527,-1.39198 -6.50527,-1.39198z" data-paper-data="{&quot;index&quot;:null}" fill="#ffffff" stroke="#000000" stroke-width="7.5"/><path d="M263.53765,120.66728c-0.00208,-5.04613 0.28157,-22.38664 0.28157,-22.38664l27.68668,-0.18798l-0.34739,-5.62287c0,0 -19.96647,-0.16076 -23.39644,-0.11627c-2.56512,0.03329 -4.10129,-2.43905 -4.12032,-4.0815c-0.02767,-2.38937 -0.10192,-8.50671 -0.10192,-8.50671c0,0 24.36787,0 30.32337,0c2.48722,0 5.29404,3.52056 5.29805,6.29857c0.00393,2.71857 -0.06035,8.38237 -0.12553,13.36143c-0.06503,4.9673 -0.13097,9.2531 -0.13097,9.2531l-27.25518,0.28022l-0.01121,5.23167l27.13238,-0.1872l0.2035,11.86866c0,0 -24.0241,0.07792 -31.47329,0.07792c-2.41598,0 -3.96231,-2.89261 -3.9633,-5.28243z" data-paper-data="{&quot;index&quot;:null}" fill="#ffffff" stroke="#000000" stroke-width="7.5"/><path d="M136.21597,23.36116v31.85964h4.20598v-22.12189c0,-0.07576 0.01497,-0.1508 0.04404,-0.22079c0.02907,-0.06997 0.07167,-0.13355 0.12535,-0.187c0.0538,-0.05357 0.11751,-0.09592 0.1876,-0.12463c0.07021,-0.02883 0.14526,-0.04343 0.22102,-0.04307h16.20476c0.15261,0 0.29909,0.06068 0.40695,0.16855c0.10798,0.10798 0.16854,0.25433 0.16854,0.40694v34.02814c0.00036,0.07468 -0.01411,0.14877 -0.04247,0.21777c-0.02846,0.06902 -0.07022,0.13175 -0.12306,0.18459c-0.05272,0.05272 -0.11546,0.09458 -0.18459,0.12294c-0.06902,0.02846 -0.14297,0.04294 -0.21765,0.04259h-37.79222c-0.07465,0.00036 -0.14865,-0.01411 -0.21771,-0.04259c-0.06905,-0.02836 -0.13179,-0.07022 -0.18459,-0.12294c-0.05279,-0.05284 -0.09461,-0.11558 -0.12301,-0.18459c-0.02841,-0.06902 -0.04287,-0.14309 -0.04253,-0.21777v-55.66954c-0.00034,-0.07465 0.01411,-0.14865 0.04253,-0.21769c0.02841,-0.06905 0.07023,-0.13177 0.12301,-0.18457c0.05279,-0.05279 0.11552,-0.09461 0.18459,-0.12302c0.06905,-0.02841 0.14303,-0.04287 0.21771,-0.04252h32.09602c1.66251,0.00068 3.25673,0.6614 4.4322,1.83694c1.17559,1.17555 1.83625,2.76974 1.83697,4.4322v5.65252c0,0.07444 -0.01472,0.14815 -0.04331,0.21691c-0.02846,0.06876 -0.07034,0.13114 -0.12318,0.18362c-0.05272,0.0526 -0.11534,0.09411 -0.18423,0.12246c-0.06889,0.02823 -0.14261,0.04259 -0.21704,0.04222z" fill="#ffffff" stroke="none" stroke-width="1"/><path d="M196.01689,20.79445c0.1157,-0.00102 0.23031,0.02079 0.33745,0.06418c0.10726,0.04339 0.20474,0.10748 0.28713,0.18864c0.08228,0.08115 0.14779,0.17776 0.1928,0.28428c0.04487,0.10652 0.0684,0.22086 0.06913,0.33648v45.15595c-0.00109,0.11533 -0.02473,0.22947 -0.06985,0.33565c-0.04512,0.10629 -0.11064,0.20256 -0.19304,0.28339c-0.08228,0.08095 -0.17976,0.14478 -0.28665,0.18797c-0.10701,0.04319 -0.22151,0.06504 -0.33697,0.06394h-32.43512c-0.08843,0.00072 -0.17602,-0.01605 -0.25807,-0.04923c-0.08192,-0.03317 -0.15648,-0.08228 -0.21945,-0.14429c-0.06297,-0.06202 -0.11316,-0.13585 -0.14755,-0.21729c-0.03451,-0.08144 -0.0526,-0.16879 -0.05321,-0.25722v-45.56442c0.0006,-0.0884 0.0187,-0.17581 0.05321,-0.25722c0.03439,-0.08142 0.08457,-0.15525 0.14755,-0.21729c0.06297,-0.06203 0.13755,-0.11104 0.21945,-0.14425c0.08204,-0.0332 0.16962,-0.04995 0.25807,-0.04928zM181.97305,41.62657c-1.74456,-5.63963 -0.0386,-11.77777 -2.24307,-12.2583c-2.20445,-0.48042 -8.69452,5.16946 -7.72851,13.97462c0.9969,9.0748 12.71554,12.99823 15.457,10.79111c1.74466,-2.20699 -3.8257,-7.14264 -5.48544,-12.50744z" fill="#ffffff" stroke="none" stroke-width="1"/><path d="M234.83181,45.62951v19.27005c-0.0041,0.7421 -0.30174,1.45247 -0.82799,1.97571c-0.52614,0.52336 -1.23819,0.81714 -1.98029,0.81714h-12.18893c-0.1274,0 -0.24962,-0.05067 -0.33974,-0.14079c-0.09,-0.09012 -0.14067,-0.21221 -0.14067,-0.33974v-17.47133h-4.75324v17.2889c0.00036,0.08746 -0.01665,0.17421 -0.04995,0.25505c-0.03342,0.08095 -0.0824,0.15443 -0.14417,0.21632c-0.06189,0.06189 -0.13537,0.11088 -0.21632,0.14417c-0.08084,0.0333 -0.16758,0.05031 -0.25504,0.04995h-11.39496c-0.17626,-0.00072 -0.34517,-0.07107 -0.4698,-0.1957c-0.12463,-0.12463 -0.19496,-0.29353 -0.1957,-0.4698v-45.53872c0.00072,-0.17627 0.07107,-0.34514 0.1957,-0.4698c0.12463,-0.12465 0.29353,-0.19498 0.4698,-0.19566h4.05952c0.06828,-0.03212 0.14297,-0.04879 0.21837,-0.04881h27.35567c0.10834,0 0.21222,0.04303 0.28883,0.11965c0.07661,0.07662 0.11968,0.18052 0.11968,0.28887v16.2356c0,0.31332 -0.06177,0.62362 -0.18169,0.91305c-0.12004,0.28944 -0.29583,0.55232 -0.51758,0.77383c-0.22163,0.22139 -0.48475,0.39705 -0.77443,0.51673c-0.28954,0.11956 -0.59986,0.18109 -0.91318,0.18073h-5.22858v3.76913h4.77121c1.42605,0 3.09351,0.63207 3.09351,2.05545zM219.2077,32.86775c0,-0.9969 -0.80675,-1.79861 -2.2147,-1.79861c-1.61353,0 -2.41776,0.94044 -2.41776,2.09913v3.64595h4.62475z" fill="#ffffff" stroke="none" stroke-width="1"/><path d="M240.49763,20.82524h13.29888c0.37159,0 0.672,0.30139 0.672,0.67317v45.52329c0,0.37184 -0.30041,0.6732 -0.672,0.6732h-13.29888c-0.3728,0 -0.6732,-0.30138 -0.6732,-0.6732v-45.52329c0,-0.37178 0.30041,-0.67317 0.6732,-0.67317z" fill="#ffffff" stroke="none" stroke-width="1"/><path d="M287.44124,57.16587v10.11803c0,0.10859 -0.04222,0.2127 -0.11944,0.2898c-0.07601,0.07696 -0.18097,0.12053 -0.28955,0.12125h-27.09844c-0.08808,0 -0.17614,-0.0175 -0.25819,-0.05152c-0.08204,-0.0339 -0.15563,-0.08373 -0.21837,-0.14659c-0.06274,-0.06274 -0.1122,-0.1373 -0.14598,-0.21922c-0.03378,-0.08204 -0.05067,-0.16975 -0.05067,-0.25843v-45.52073c0,-0.17854 0.07118,-0.34976 0.19786,-0.47601c0.12548,-0.12624 0.29679,-0.19716 0.47535,-0.19716h13.29645c0.08928,-0.00034 0.17614,0.01682 0.25818,0.0505c0.08204,0.03367 0.15684,0.08321 0.21958,0.14575c0.06274,0.06255 0.11221,0.13686 0.14718,0.2187c0.03378,0.08185 0.05067,0.16959 0.05067,0.25821v35.25623h13.12635c0.05429,0 0.10737,0.01074 0.15805,0.03137c0.04946,0.02075 0.09411,0.05103 0.13271,0.08927c0.0374,0.03812 0.06756,0.08349 0.08808,0.13344c0.0205,0.04983 0.03016,0.10316 0.03016,0.15708z" fill="#ffffff" stroke="none" stroke-width="1"/><path d="M320.51653,57.16587v10.11803c0,0.10895 -0.04343,0.21355 -0.12064,0.29064c-0.07722,0.0771 -0.18217,0.12041 -0.29075,0.12041h-27.09603c-0.17976,0 -0.35108,-0.07119 -0.47776,-0.19786c-0.12668,-0.1268 -0.19786,-0.29861 -0.19786,-0.47789v-45.52073c0,-0.08862 0.0169,-0.17637 0.05189,-0.25821c0.03378,-0.08184 0.08325,-0.15615 0.14598,-0.2187c0.06274,-0.06255 0.13753,-0.11208 0.21958,-0.14575c0.08204,-0.03369 0.17011,-0.05085 0.25818,-0.05051h13.29888c0.17857,0 0.34988,0.07093 0.47656,0.19716c0.12548,0.12625 0.19665,0.29747 0.19665,0.47601v35.25623h13.11911c0.05429,-0.00097 0.10858,0.00892 0.15925,0.0292c0.05067,0.02015 0.09651,0.05031 0.13513,0.08867c0.0386,0.03824 0.06999,0.08397 0.09049,0.1344c0.0205,0.05031 0.03136,0.10436 0.03136,0.15889z" fill="#ffffff" stroke="none" stroke-width="1"/><path d="M212.29607,79.6937c0.17132,0.00133 0.33419,0.07022 0.45362,0.19159c0.12064,0.12137 0.187,0.28521 0.187,0.45581v45.57728c0,0.17108 -0.06877,0.33515 -0.18941,0.45604c-0.12064,0.12101 -0.28473,0.18893 -0.45605,0.18893h-12.17324c-0.08445,0.00036 -0.1689,-0.01616 -0.24732,-0.04838c-0.07842,-0.03221 -0.1508,-0.07975 -0.20993,-0.1396c-0.06032,-0.05996 -0.10858,-0.13114 -0.14115,-0.20956c-0.03257,-0.07842 -0.04947,-0.16251 -0.04947,-0.24744v-18.3115h-4.71969v18.3115c0,0.17108 -0.06756,0.33515 -0.18821,0.45604c-0.12186,0.12101 -0.28594,0.18893 -0.45605,0.18893h-9.7953c-0.17011,0 -0.33419,-0.06793 -0.45605,-0.18893c-0.12064,-0.12089 -0.18821,-0.28496 -0.18821,-0.45604v-45.57728c0,-0.08481 0.01569,-0.16902 0.04826,-0.24757c0.03257,-0.07854 0.07963,-0.14997 0.13995,-0.21004c0.05912,-0.0602 0.1303,-0.10786 0.20872,-0.14043c0.07842,-0.03257 0.16288,-0.04935 0.24732,-0.04935h1.94603c0.07118,-0.03088 20.05872,-0.03088 20.12988,0zM199.47619,91.80545c0,-0.99943 -0.80711,-1.79849 -2.21507,-1.79849c-1.61064,0 -2.41535,0.93779 -2.41535,2.09914v3.62532h4.62438z" fill="#ffffff" stroke="none" stroke-width="1"/><path d="M232.04957,90.60814v25.04323h4.62438v-18.35518c0,-0.12945 0.05188,-0.25372 0.14356,-0.34517c0.0917,-0.09157 0.21596,-0.14309 0.34505,-0.14309h13.13721c0.06394,-0.00024 0.12789,0.01206 0.187,0.03643c0.06032,0.02438 0.11341,0.06032 0.15925,0.10569c0.04584,0.04536 0.08204,0.0993 0.10617,0.15865c0.02535,0.05947 0.03741,0.12318 0.03741,0.18749v28.88172c0,0.05393 -0.00965,0.10726 -0.03137,0.15695c-0.0205,0.0497 -0.05067,0.09495 -0.08806,0.13283c-0.0386,0.03801 -0.08446,0.06805 -0.13392,0.08844c-0.04946,0.02039 -0.10376,0.03064 -0.15684,0.03028h-31.76988c-0.08928,0.00036 -0.17614,-0.01678 -0.25819,-0.05044c-0.08204,-0.03366 -0.15684,-0.08324 -0.21957,-0.14574c-0.06274,-0.06262 -0.11221,-0.13693 -0.1472,-0.21873c-0.03378,-0.0818 -0.05067,-0.16963 -0.05067,-0.25818v-45.52336c0,-0.08867 0.01689,-0.17638 0.05067,-0.25818c0.03498,-0.08192 0.08446,-0.15624 0.1472,-0.21873c0.06274,-0.0625 0.13753,-0.11208 0.21957,-0.14574c0.08204,-0.03366 0.1689,-0.0508 0.25819,-0.05055h9.16674c0.05912,-0.02968 0.12307,-0.04548 0.18822,-0.04621h15.19785c2.02204,0 3.96203,0.80339 5.3917,2.23353c1.42966,1.43015 2.23317,3.36978 2.23317,5.39218v2.90083c0,0.10907 -0.04344,0.21354 -0.11944,0.29064c-0.07722,0.0771 -0.18217,0.1204 -0.29075,0.1204z" fill="#ffffff" stroke="none" stroke-width="1"/><path d="M348.1627,20.8304h5.90927c0.08445,0 0.1689,0.01676 0.24733,0.04933c0.07842,0.03257 0.1496,0.0803 0.20872,0.14045c0.06032,0.06016 0.10738,0.13156 0.13995,0.2101c0.03257,0.07854 0.04945,0.16269 0.04826,0.24757v45.57218c0,0.17095 -0.06756,0.33502 -0.18821,0.45592c-0.12186,0.12101 -0.28594,0.18894 -0.45605,0.18894h-12.17324c-0.08566,0.00036 -0.17011,-0.01605 -0.24854,-0.04838c-0.07842,-0.03221 -0.1496,-0.07962 -0.20992,-0.13958c-0.06032,-0.05996 -0.10737,-0.13115 -0.13995,-0.20957c-0.03257,-0.07842 -0.04946,-0.16251 -0.04946,-0.24732v-18.31162h-4.71728v18.31162c0,0.17095 -0.06756,0.33502 -0.18942,0.45592c-0.12064,0.12101 -0.28473,0.18894 -0.45605,0.18894h-9.7941c-0.17132,0 -0.3354,-0.06793 -0.45604,-0.18894c-0.12064,-0.12089 -0.18821,-0.28497 -0.18821,-0.45592v-45.57732c-0.0012,-0.08491 0.01569,-0.16904 0.04827,-0.24757c0.03136,-0.07854 0.07963,-0.14994 0.13874,-0.2101c0.06032,-0.06016 0.13151,-0.10789 0.20993,-0.14045c0.07842,-0.03257 0.16287,-0.04934 0.24733,-0.04934M341.25568,32.93712c0,-0.99943 -0.80713,-1.7986 -2.21507,-1.7986c-1.61063,0 -2.41414,0.9379 -2.41414,2.09913v3.63822h4.62438z" fill="#ffffff" stroke="none" stroke-width="1"/><path d="M178.91559,79.67055v12.33275h-7.32204v34.46753h-14.13135v-34.46753h-6.47993c-1.85916,-0.00206 -3.64231,-0.74221 -4.95737,-2.05786c-1.31385,-1.31565 -2.0522,-3.09929 -2.0522,-4.95893v-5.31593z" fill="#ffffff" stroke="none" stroke-width="1"/><path d="M333.40801,83.74393c9.73443,5.96346 6.73396,34.27353 -0.75646,39.09799c-7.49044,4.82447 -27.67712,2.40295 -27.67712,2.40295c-0.07546,0.0007 -0.15019,-0.01531 -0.22021,-0.04696c-0.06989,-0.03165 -0.13352,-0.07849 -0.18725,-0.13764c-0.05374,-0.05915 -0.09657,-0.12959 -0.12591,-0.20726c-0.02944,-0.07768 -0.04489,-0.16101 -0.0454,-0.24535c0,0 0,-11.70485 0,-18.28656c0,-7.72269 0,-25.17619 0,-25.17619c0.00051,-0.08432 0.01595,-0.16769 0.0454,-0.24535c0.02935,-0.07767 0.07217,-0.1481 0.12591,-0.20726c0.05374,-0.05916 0.11736,-0.10591 0.18725,-0.13759c0.07,-0.03167 0.14474,-0.04764 0.22021,-0.047c0,0 18.69914,-2.72725 28.43357,3.23622zM317.77932,94.43711l-0.37844,17.56302c0,0 5.61933,-0.55124 7.73044,-3.89073c2.20074,-3.48127 1.74911,-9.80506 -0.84674,-12.2803c-1.22981,-1.17268 -6.50527,-1.39198 -6.50527,-1.39198z" data-paper-data="{&quot;index&quot;:null}" fill="#ffffff" stroke="none" stroke-width="1"/><path d="M263.53765,120.66728c-0.00208,-5.04613 0.28157,-22.38664 0.28157,-22.38664l27.68668,-0.18798l-0.34739,-5.62287c0,0 -19.96647,-0.16076 -23.39644,-0.11627c-2.56512,0.03329 -4.10129,-2.43905 -4.12032,-4.0815c-0.02767,-2.38937 -0.10192,-8.50671 -0.10192,-8.50671c0,0 24.36787,0 30.32337,0c2.48722,0 5.29404,3.52056 5.29805,6.29857c0.00393,2.71857 -0.06035,8.38237 -0.12553,13.36143c-0.06503,4.9673 -0.13097,9.2531 -0.13097,9.2531l-27.25518,0.28022l-0.01121,5.23167l27.13238,-0.1872l0.2035,11.86866c0,0 -24.0241,0.07792 -31.47329,0.07792c-2.41598,0 -3.96231,-2.89261 -3.9633,-5.28243z" data-paper-data="{&quot;index&quot;:null}" fill="#ffffff" stroke="#000000" stroke-width="0"/><text transform="translate(9.0308,154.504) scale(0.30055,0.30055)" font-size="40" xml:space="preserve" fill-opacity="0.28541" fill="#ffffff" fill-rule="nonzero" stroke="none" stroke-width="1" stroke-linecap="butt" stroke-linejoin="miter" stroke-miterlimit="10" stroke-dasharray="" stroke-dashoffset="0" font-family="Sans Serif" font-weight="normal" text-anchor="start" style="mix-blend-mode: normal"><tspan x="0" dy="0">v1.0.5</tspan></text><text transform="translate(40.78942,382.23853) scale(0.30886,0.30886)" font-size="40" xml:space="preserve" fill="url(#color-1)" fill-rule="nonzero" stroke="none" stroke-width="1" stroke-linecap="butt" stroke-linejoin="miter" stroke-miterlimit="10" stroke-dasharray="" stroke-dashoffset="0" font-family="Sans Serif" font-weight="normal" text-anchor="start" style="mix-blend-mode: normal"><tspan x="0" dy="0">Season 1</tspan></text><path d="M3.9338,346.6502c0,-45.09812 0,-141.05361 0,-169.26255c0,-8.39923 4.1042,-15.80867 9.21425,-15.80867c22.04954,0 40.9807,0 80.31161,0c5.76896,0 9.0462,6.61386 9.0462,14.28528c0,26.6403 0,118.58741 0,167.73915c0,9.47304 -3.56518,16.39659 -7.70158,16.39659c-20.26232,0 -43.90614,0 -82.52062,0c-5.33642,0 -8.34987,-5.74183 -8.34987,-13.34978z" fill="url(#color-2)" stroke="none" stroke-width="0"/><text transform="translate(41.2527,173.03429) scale(0.26313,0.26313)" font-size="40" xml:space="preserve" fill="#dedede" fill-rule="nonzero" stroke="none" stroke-width="1" stroke-linecap="butt" stroke-linejoin="miter" stroke-miterlimit="10" stroke-dasharray="" stroke-dashoffset="0" font-family="Sans Serif" font-weight="normal" text-anchor="start" style="mix-blend-mode: normal"><tspan x="0" dy="0">News</tspan></text><text transform="translate(8.49167,186.26712) scale(0.20175,0.20175)" font-size="40" xml:space="preserve" fill="#ffffff" fill-rule="nonzero" stroke="none" stroke-width="1" stroke-linecap="butt" stroke-linejoin="miter" stroke-miterlimit="10" stroke-dasharray="" stroke-dashoffset="0" font-family="Sans Serif" font-weight="normal" text-anchor="start" style="mix-blend-mode: normal"><tspan x="0" dy="0">&lt;&lt;The scratch version </tspan><tspan x="0" dy="46.150000000000006px">will receive one final big </tspan><tspan x="0" dy="46.150000000000006px">update before being </tspan><tspan x="0" dy="46.150000000000006px">semi-Discontinued!&gt;&gt;</tspan><tspan x="0" dy="46.150000000000006px">This Project has been </tspan><tspan x="0" dy="46.150000000000006px">semi-discontinued </tspan><tspan x="0" dy="46.150000000000006px">on scratch and will </tspan><tspan x="0" dy="46.150000000000006px">only receive minor </tspan><tspan x="0" dy="46.150000000000006px">updates and patches. </tspan><tspan x="0" dy="46.150000000000006px">But don't fret! </tspan><tspan x="0" dy="46.150000000000006px">The development of </tspan><tspan x="0" dy="46.150000000000006px">this project will be </tspan><tspan x="0" dy="46.150000000000006px">continued on TurboWarp</tspan><tspan x="0" dy="46.150000000000006px"> and will be available on</tspan><tspan x="0" dy="46.150000000000006px"> various "Game </tspan><tspan x="0" dy="46.150000000000006px">Downloading websites" </tspan><tspan x="0" dy="46.150000000000006px">Such as itch, Gamejolt </tspan><tspan x="0" dy="46.150000000000006px">and more! Scratch On! </tspan><tspan x="0" dy="46.150000000000006px">- Devobio</tspan></text></g></g></svg>