<svg version="1.1" xmlns="http://www.w3.org/2000/svg" xmlns:xlink="http://www.w3.org/1999/xlink" width="150.76162" height="25.40429" viewBox="0,0,150.76162,25.40429"><g transform="translate(-2.00421,-332.47555)"><g data-paper-data="{&quot;isPaintingLayer&quot;:true}" fill="#ffffff" fill-rule="nonzero" stroke-linecap="butt" stroke-linejoin="miter" stroke-miterlimit="10" stroke-dasharray="" stroke-dashoffset="0" style="mix-blend-mode: normal"><text transform="translate(39.18285,351.72487) scale(0.44118,0.44118)" font-size="40" xml:space="preserve" fill="#ffffff" fill-rule="nonzero" stroke="none" stroke-width="1" stroke-linecap="butt" stroke-linejoin="miter" stroke-miterlimit="10" stroke-dasharray="" stroke-dashoffset="0" font-family="&quot;Microsoft YaHei&quot;, &quot;微软雅黑&quot;, STXihei, &quot;华文细黑&quot;" font-weight="normal" text-anchor="start" style="mix-blend-mode: normal"><tspan x="0" dy="0">Joined Lobby</tspan></text><path d="M12.86071,346.40535c3.08767,-1.88513 7.25705,-1.87553 10.57639,-0.33564c1.23767,0.57417 3.29309,2.1823 2.20287,3.58689c-0.1866,0.2404 -0.25321,0.59083 -0.50643,0.75964c-0.19304,0.1287 -1.39294,0.07006 -1.67418,-0.09301c-0.38342,-0.22231 -0.64284,-0.83051 -0.99503,-1.0195c-1.66899,-0.89559 -2.80651,-1.0678 -4.7765,-1.06076c-0.8056,0.00288 -3.47317,0.9656 -3.97404,1.54996c-0.27451,0.32026 -1.17998,1.10178 -1.64001,0.79509c-0.86556,-0.05876 -1.54945,-0.77949 -1.54945,-1.65995c0,-0.56857 0.2852,-1.07053 0.72034,-1.37064c0.40786,-0.44843 0.93565,-0.73668 1.61604,-1.15209z" stroke="#ff0000" stroke-width="0"/><path d="M10.83426,340.22975c3.1398,-1.11127 7.2107,-2.1761 10.48857,-1.44768c1.16559,0.25902 5.05373,1.51804 5.62794,1.9651c0.48819,0.3801 3.42728,2.53542 3.35399,3.77183c-0.00716,0.12082 -0.24254,1.03985 -0.914,1.3649c-0.56978,0.27584 -1.58142,-0.02215 -1.69029,-0.06276c-0.78686,-0.29355 -1.92481,-1.88029 -2.66539,-2.29403c-2.31736,-1.29463 -8.86651,-1.2435 -9.2583,-1.15643c-1.17946,0.2621 -2.50242,0.4261 -3.56144,0.95561c-0.34348,0.17174 -2.65865,1.98884 -3.40343,2.49485c-0.08297,0.05637 -0.18089,0.10346 -0.2893,0.14078c-0.19723,0.08238 -0.4137,0.12788 -0.6408,0.12788c-0.15148,0 -0.29824,-0.02025 -0.43771,-0.05818c-0.75281,-0.12723 -1.43542,-0.61737 -1.22554,-1.56183c-0.00038,-0.01456 -0.00057,-0.02917 -0.00057,-0.04382c0,-0.57631 0.29301,-1.08418 0.73818,-1.38277c0.61276,-0.71283 3.30988,-2.61236 3.87809,-2.81347z" stroke="#ff0000" stroke-width="0"/><path d="M8.55059,334.4227c0.19844,-0.09922 4.03355,-1.60918 8.21233,-1.89266c3.66818,-0.24884 7.62151,0.381 10.15841,1.3514c2.39441,0.9159 4.53956,2.22024 6.31712,3.91398c0.58069,0.5533 1.55738,1.29089 1.36228,2.19372c-0.27289,1.2628 -1.40363,2.03871 -2.53839,1.29242c-0.80526,-0.52959 -1.29355,-1.44186 -2.09452,-1.96073c-1.85809,-1.20366 -5.26715,-2.72778 -7.4708,-3.24604c-0.58627,-0.13788 -3.95057,-0.52938 -4.89332,-0.42463c-1.37836,0.15315 -3.69316,0.32673 -4.95625,0.78233c-1.77912,0.64173 -3.61402,1.55858 -5.28864,2.34649c-0.93323,0.43909 -1.96226,1.95812 -2.72277,2.47481c-0.08297,0.05637 -0.18089,0.10346 -0.2893,0.14078c-0.19723,0.08238 -0.4137,0.12788 -0.6408,0.12788c-0.15148,0 -0.29824,-0.02025 -0.43771,-0.05818c-0.75281,-0.12723 -1.43542,-0.61737 -1.22554,-1.56183c-0.00038,-0.01456 -0.00057,-0.02917 -0.00057,-0.04382c0,-0.46173 0.18808,-0.87953 0.49181,-1.18097c1.23312,-2.05931 4.06778,-3.28054 6.01665,-4.25498z" stroke="#ff0000" stroke-width="0"/><path d="M18.29084,350.75612l0.54067,0.00202c1.37397,0.27151 2.55317,0.94509 3.01314,2.37315c0.21261,0.66008 0.00961,1.28467 -0.16374,1.91069c-0.15826,0.57153 -0.22162,1.24184 -0.5865,1.73637c-0.64987,0.88079 -1.86651,1.09739 -2.87308,1.10149c-1.38006,-0.01419 -3.00258,-0.87691 -3.59932,-2.20091c-0.49547,-1.09931 0.1496,-2.13065 0.62279,-3.07282c0.2798,-0.55711 0.57571,-1.11682 1.1197,-1.48077c0.59394,-0.39737 1.23589,-0.36896 1.91281,-0.3697c0,0 0.00482,0 0.01353,0.00047z" stroke="none" stroke-width="0.5"/></g></g></svg>