<svg version="1.1" xmlns="http://www.w3.org/2000/svg" xmlns:xlink="http://www.w3.org/1999/xlink" width="932.23491" height="358.49326" viewBox="0,0,932.23491,358.49326"><defs><linearGradient x1="258.02205" y1="235.66213" x2="258.02205" y2="278.04227" gradientUnits="userSpaceOnUse" id="color-1"><stop offset="0" stop-color="#000000" stop-opacity="0.44355"/><stop offset="1" stop-color="#000000" stop-opacity="0"/></linearGradient><linearGradient x1="-45.75031" y1="181.00804" x2="-45.75031" y2="222.87491" gradientUnits="userSpaceOnUse" id="color-2"><stop offset="0" stop-color="#000000" stop-opacity="0.12928"/><stop offset="1" stop-color="#000000" stop-opacity="0"/></linearGradient><linearGradient x1="-54.76765" y1="333.96907" x2="-54.76765" y2="220.48867" gradientUnits="userSpaceOnUse" id="color-3"><stop offset="0" stop-color="#000000"/><stop offset="1" stop-color="#000000" stop-opacity="0.45577"/></linearGradient><linearGradient x1="-90.05357" y1="132.62266" x2="-90.05357" y2="174.48956" gradientUnits="userSpaceOnUse" id="color-4"><stop offset="0" stop-color="#000000" stop-opacity="0.38546"/><stop offset="1" stop-color="#000000" stop-opacity="0"/></linearGradient><linearGradient x1="-127.91236" y1="132.62266" x2="-127.91236" y2="174.48956" gradientUnits="userSpaceOnUse" id="color-5"><stop offset="0" stop-color="#000000" stop-opacity="0.44355"/><stop offset="1" stop-color="#000000" stop-opacity="0.18548"/></linearGradient><linearGradient x1="760.60407" y1="180.67076" x2="760.60407" y2="222.53762" gradientUnits="userSpaceOnUse" id="color-6"><stop offset="0" stop-color="#000000" stop-opacity="0.44355"/><stop offset="1" stop-color="#000000" stop-opacity="0.18548"/></linearGradient></defs><g transform="translate(126.22153,24.52416)"><g data-paper-data="{&quot;isPaintingLayer&quot;:true}" fill-rule="nonzero" stroke-width="0" stroke-linecap="butt" stroke-linejoin="miter" stroke-miterlimit="10" stroke-dasharray="" stroke-dashoffset="0" style="mix-blend-mode: normal"><path d="M212.10714,278.04227v-42.38015h91.82981v42.38015z" data-paper-data="{&quot;index&quot;:null}" fill="url(#color-1)" stroke="none"/><path d="M-125.52737,221.87491l-0.69416,-57.60975l48.22265,-4.86647l0.31648,18.95678c0,0 56.85775,-3.729 76.32514,-3.241c13.87517,0.34781 29.49298,5.89356 29.49298,5.89356v41.86687z" data-paper-data="{&quot;index&quot;:null}" fill="url(#color-2)" stroke="none"/><path d="M-48.13874,219.99441l-0.43752,9.025l2.39331,5.33541l3.79886,8.93179l3.43503,-2.43503c0,0 -3.34121,18.58488 -2.80335,30.58295c0.08481,1.89199 3.71439,4.82292 3.91589,7.30262c1.62566,20.00624 3.06179,55.23195 3.06179,55.23195l-72.57348,-0.74063l2.30484,-37.87227l30.28279,-65.20086z" data-paper-data="{&quot;index&quot;:null}" fill="url(#color-3)" stroke="none"/><path d="M-72.39177,168.90664l-7.52273,-101.06057l82.92705,17.32177l22.3317,84.66929c0,0 -0.7706,5.79674 -8.58113,8.39546c-5.42075,1.80359 -12.9361,1.54413 -20.4305,1.97051c-6.20383,0.35295 -12.51435,0.00059 -16.52597,-0.0376c-16.69352,-0.15893 -52.19842,-11.25886 -52.19842,-11.25886z" data-paper-data="{&quot;index&quot;:null}" fill="url(#color-4)" stroke="none"/><path d="M-118.85725,168.90664l-3.85685,-101.06057l43.28538,17.32177l10.68008,84.66929z" data-paper-data="{&quot;index&quot;:null}" fill="url(#color-5)" stroke="none"/><path d="M735.80008,219.41112l-12.97932,-30.4821l-31.66205,-0.30093l0.29132,14.46844l6.77848,16.73089l-26.02314,-0.05982l-1.82883,-41.53956l69.95057,-0.29014l-0.38786,42.01978z" data-paper-data="{&quot;index&quot;:null}" fill="url(#color-6)" stroke="none"/><path d="M706.40733,-1.46355l-11,-23.06061l109.71506,2l0.891,65.0606z" data-paper-data="{&quot;index&quot;:null}" fill-opacity="0.24653" fill="#0076a1" stroke="#000000"/></g></g></svg>