<svg version="1.1" xmlns="http://www.w3.org/2000/svg" xmlns:xlink="http://www.w3.org/1999/xlink" width="947.73758" height="499.33353" viewBox="0,0,947.73758,499.33353"><g transform="translate(107.5976,51.87749)"><g data-paper-data="{&quot;isPaintingLayer&quot;:true}" fill-rule="nonzero" stroke="none" stroke-width="0" stroke-linecap="butt" stroke-linejoin="miter" stroke-miterlimit="10" stroke-dasharray="" stroke-dashoffset="0" style="mix-blend-mode: normal"><path d="M-101.94297,447.45605l35.7207,-159.15916c0,0 101.38392,-12.20578 222.45868,-13.05829c10.36438,-0.07298 28.36387,3.69273 38.28838,6.25083c11.7724,3.03441 10.61644,7.98386 23.38971,8.43503c30.1648,1.06546 65.63329,-2.0202 94.1558,-2.58508c11.78154,-0.23333 2.10137,-8.05645 12.99811,-8.40741c8.3575,-0.26918 161.46631,4.40365 174.84205,1.34478c7.70231,-1.76142 27.04495,9.63077 49.25601,14.70908c17.47612,3.99572 37.37107,1.51048 50.39107,3.14497c12.60895,1.58289 7.00242,-5.28832 12.97415,-7.48641c138.43646,-50.95614 208.2881,0.6555 208.2881,0.6555c0,0 41.64318,78.28895 2.65386,107.12027c-25.79236,19.07261 -213.82773,49.03588 -213.82773,49.03588z" data-paper-data="{&quot;index&quot;:null}" fill="#000000"/><path d="M441.50354,346.38495l4.24393,0.98678z" data-paper-data="{&quot;index&quot;:null}" fill="#ff0000"/><path d="" data-paper-data="{&quot;index&quot;:null}" fill="#ff0000"/><path d="M-101.06151,288.18951l-6.53609,-24.39979l42.41813,-1.83862c0,0 27.4974,2.30215 31.89544,1.09903c3.68192,-1.00722 -67.77748,25.13938 -67.77748,25.13938z" data-paper-data="{&quot;index&quot;:null}" fill="#000000"/><path d="M-24.6771,-38.17689c0,0 -0.13129,-1.79267 0.43857,-2.78171c0.54148,-0.93979 2.89977,-3.01231 2.89977,-3.01231l5.09553,-7.90657l2.69964,0.25222l1.69042,1.99763l0.30293,2.22383l-0.85507,2.37176c0,0 0.93219,4.11163 0.70921,5.44022c-0.31285,1.86411 5.73579,6.59355 4.84947,8.48827c-1.19394,2.55236 -9.46993,2.03308 -10.80011,2.03308c-3.89991,0 -4.34211,-5.08772 -4.34211,-5.08772z" data-paper-data="{&quot;index&quot;:null}" fill="#000000"/></g></g></svg>