<svg version="1.1" xmlns="http://www.w3.org/2000/svg" xmlns:xlink="http://www.w3.org/1999/xlink" width="423.10461" height="35.71259" viewBox="0,0,423.10461,35.71259"><defs><linearGradient x1="20.87438" y1="10.43978" x2="20.87438" y2="31.33191" gradientUnits="userSpaceOnUse" id="color-1"><stop offset="0" stop-color="#ffffff"/><stop offset="1" stop-color="#262626"/></linearGradient></defs><g transform="translate(-3.46469,-3.64644)"><g data-paper-data="{&quot;isPaintingLayer&quot;:true}" fill-rule="nonzero" stroke-linecap="butt" stroke-linejoin="miter" stroke-miterlimit="10" stroke-dasharray="" stroke-dashoffset="0" style="mix-blend-mode: normal"><path d="M3.46469,34.3653c0,-3.91082 0,-19.29002 0,-26.6009c0,-2.37677 1.51738,-3.9008 3.8839,-3.9008c7.25557,0 22.4929,0 26.45312,0c1.84217,0 3.7325,1.98806 3.7325,3.9008c0,4.03607 0,19.31569 0,26.45312c0,2.26936 -1.80515,3.7156 -3.58472,3.7156c-3.91873,0 -19.30185,0 -26.6009,0c-2.36703,0 -3.8839,-1.79544 -3.8839,-3.56782z" fill="#1f1f1f" stroke="none" stroke-width="0"/><path d="M12.5095,27.32225c0,0 -1.01733,-6.31326 -0.69006,-9.2223c0.27472,-2.44192 2.52375,-7.07715 2.52375,-7.07715c0,0 1.68754,-0.69802 3.45526,-0.56653c2.1283,0.15831 4.49492,1.18323 5.78611,1.63895c2.24883,0.79371 4.61317,3.81741 4.61317,3.81741c0,0 0.76413,1.70553 0.97793,3.61919c0.10753,0.96253 -0.43149,1.77479 -0.2532,2.85869c0.3509,2.13333 1.15723,4.30502 1.06434,5.41477c-0.12733,1.52121 -3.07945,3.52392 -3.07945,3.52392c0,0 -0.92411,0.03291 -2.17391,-0.13086c-2.65374,-0.34775 -7.01419,-1.10572 -8.78902,-1.59965c-1.42337,-0.39613 -3.43493,-2.27643 -3.43493,-2.27643z" fill="url(#color-1)" stroke="#000000" stroke-width="0"/><path d="M26.29612,23.65488c0,0 -2.15232,-2.36459 -2.61579,-3.65479c-0.29143,-0.81128 0.10295,-3.3404 0.10295,-3.3404c0,0 0.73127,0.00496 1.28233,0.3318c0.46551,0.2761 0.72461,0.87915 1.09874,0.91168c0.27276,0.02372 0.45579,-0.62805 0.83475,-0.77406c0.64455,-0.24832 1.47025,-0.06194 1.47025,-0.06194c0,0 0.80965,2.01473 0.89858,3.52663c0.04276,0.72678 -0.41611,1.76126 -0.13484,3.09686c0.19269,0.91499 0.96147,1.73985 0.95906,2.61312c-0.00539,1.96392 -0.97574,3.46338 -0.97574,3.46338c0,0 -1.3487,0.42597 -1.77683,-0.47012c-0.26895,-0.56293 -0.56225,-3.04718 -0.78447,-4.3435c-0.2118,-1.23556 -0.35902,-1.29868 -0.35902,-1.29868z" fill="#e2e2e2" stroke="none" stroke-width="0"/><text transform="translate(346.87124,36.22378) scale(0.25082,0.25082)" font-size="40" xml:space="preserve" fill="#ffffff" fill-rule="nonzero" stroke="#ffffff" stroke-width="1" stroke-linecap="butt" stroke-linejoin="miter" stroke-miterlimit="10" stroke-dasharray="" stroke-dashoffset="0" font-family="Sans Serif" font-weight="normal" text-anchor="start" style="mix-blend-mode: normal"><tspan x="0" dy="0">Players in lobby:</tspan></text><text transform="translate(346.87125,14.55711) scale(0.25082,0.25082)" font-size="40" xml:space="preserve" fill="#ffffff" fill-rule="nonzero" stroke="#ffffff" stroke-width="1" stroke-linecap="butt" stroke-linejoin="miter" stroke-miterlimit="10" stroke-dasharray="" stroke-dashoffset="0" font-family="Sans Serif" font-weight="normal" text-anchor="start" style="mix-blend-mode: normal"><tspan x="0" dy="0">You are in lobby:</tspan></text></g></g></svg>