<svg version="1.1" xmlns="http://www.w3.org/2000/svg" xmlns:xlink="http://www.w3.org/1999/xlink" width="122.55525" height="118.11596" viewBox="0,0,122.55525,118.11596"><g transform="translate(-178.72238,-120.94202)"><g data-paper-data="{&quot;isPaintingLayer&quot;:true}" fill-rule="nonzero" stroke-linecap="butt" stroke-linejoin="miter" stroke-miterlimit="10" stroke-dasharray="" stroke-dashoffset="0" style="mix-blend-mode: normal"><path d="M178.72238,239.05798v-118.11596h122.55525v118.11596z" data-paper-data="{&quot;index&quot;:null}" fill="#4c8eff" stroke="none" stroke-width="0"/><path d="M199.23149,148.85226v22.53945h2.97557v-15.65037c0,-0.0536 0.01059,-0.10669 0.03115,-0.1562c0.02057,-0.0495 0.0507,-0.09449 0.08868,-0.1323c0.03807,-0.0379 0.08313,-0.06786 0.13272,-0.08817c0.04968,-0.0204 0.10277,-0.03073 0.15637,-0.03047h11.46424c0.10797,0 0.21159,0.04293 0.2879,0.11924c0.07639,0.07639 0.11923,0.17992 0.11923,0.28789v24.07358c0.00026,0.05283 -0.00998,0.10524 -0.03004,0.15406c-0.02014,0.04883 -0.04968,0.0932 -0.08706,0.13059c-0.0373,0.0373 -0.08168,0.06691 -0.13059,0.08697c-0.04883,0.02014 -0.10115,0.03039 -0.15398,0.03013h-26.73652c-0.05281,0.00026 -0.10516,-0.00999 -0.15401,-0.03013c-0.04885,-0.02006 -0.09323,-0.04968 -0.13058,-0.08697c-0.03735,-0.03738 -0.06693,-0.08177 -0.08703,-0.13059c-0.0201,-0.04883 -0.03033,-0.10123 -0.03009,-0.15406v-39.38403c-0.00024,-0.05281 0.00999,-0.10516 0.03009,-0.15401c0.0201,-0.04885 0.04969,-0.09322 0.08703,-0.13057c0.03735,-0.03735 0.08172,-0.06693 0.13058,-0.08703c0.04885,-0.0201 0.10119,-0.03033 0.15401,-0.03009h22.70668c1.17616,0.00048 2.30401,0.46791 3.13561,1.29957c0.83168,0.83165 1.29907,1.95948 1.29958,3.13561v3.99894c0,0.05266 -0.01042,0.10481 -0.03064,0.15346c-0.02014,0.04865 -0.04976,0.09278 -0.08714,0.12991c-0.0373,0.03721 -0.08159,0.06658 -0.13033,0.08664c-0.04873,0.01997 -0.10089,0.03013 -0.15355,0.02987z" fill="#ffffff" stroke="none" stroke-width="1"/><path d="M265.81991,147.12882c0.1212,0.00094 0.23643,0.04968 0.32092,0.13554c0.08535,0.08587 0.1323,0.20178 0.1323,0.32246v32.24415c0,0.12103 -0.04865,0.23711 -0.134,0.32264c-0.08535,0.08561 -0.20143,0.13366 -0.32264,0.13366h-8.6121c-0.05975,0.00026 -0.11949,-0.01144 -0.17497,-0.03422c-0.05548,-0.02279 -0.10669,-0.05642 -0.14852,-0.09876c-0.04268,-0.04242 -0.07681,-0.09278 -0.09986,-0.14826c-0.02304,-0.05548 -0.035,-0.11497 -0.035,-0.17506v-12.95467h-3.339v12.95467c0,0.12103 -0.0478,0.23711 -0.13315,0.32264c-0.08621,0.08561 -0.20229,0.13366 -0.32264,0.13366h-6.92979c-0.12035,0 -0.23643,-0.04806 -0.32264,-0.13366c-0.08535,-0.08552 -0.13315,-0.2016 -0.13315,-0.32264v-32.24415c0,-0.06 0.01109,-0.11958 0.03414,-0.17514c0.02304,-0.05557 0.05634,-0.10609 0.09901,-0.1486c0.04182,-0.04259 0.09218,-0.07631 0.14766,-0.09935c0.05548,-0.02304 0.11522,-0.03491 0.17497,-0.03491h1.37674c0.05036,-0.02185 14.19076,-0.02185 14.24111,0zM256.75032,155.69739c0,-0.70706 -0.57101,-1.27236 -1.56708,-1.27236c-1.13946,0 -1.70876,0.66345 -1.70876,1.48505v2.56477h3.27157z" fill="#ffffff" stroke="none" stroke-width="1"/><path d="M279.79472,154.85035v17.71711h3.27157v-12.98557c0,-0.09158 0.0367,-0.1795 0.10157,-0.2442c0.06487,-0.06478 0.15278,-0.10123 0.24411,-0.10123h9.29406c0.04524,-0.00017 0.09048,0.00853 0.1323,0.02578c0.04268,0.01724 0.08023,0.04268 0.11266,0.07477c0.03243,0.0321 0.05804,0.07024 0.07511,0.11224c0.01793,0.04208 0.02646,0.08714 0.02646,0.13264v20.43269c0,0.03815 -0.00683,0.07588 -0.02219,0.11104c-0.01451,0.03516 -0.03585,0.06717 -0.0623,0.09397c-0.02731,0.02689 -0.05975,0.04814 -0.09474,0.06257c-0.03499,0.01443 -0.0734,0.02168 -0.11096,0.02142h-22.47595c-0.06316,0.00026 -0.12461,-0.01186 -0.18266,-0.03568c-0.05804,-0.02381 -0.11096,-0.05889 -0.15534,-0.10311c-0.04438,-0.0443 -0.07938,-0.09687 -0.10413,-0.15474c-0.0239,-0.05787 -0.03585,-0.12 -0.03585,-0.18266v-32.206c0,-0.06274 0.01195,-0.12478 0.03585,-0.18266c0.02475,-0.05795 0.05975,-0.11053 0.10413,-0.15474c0.04438,-0.04422 0.0973,-0.0793 0.15534,-0.10311c0.05804,-0.02381 0.11949,-0.03593 0.18266,-0.03576h6.48511c0.04182,-0.021 0.08706,-0.03218 0.13315,-0.03269h10.75189c1.43051,0 2.80299,0.56836 3.81442,1.58013c1.01143,1.01177 1.57988,2.38399 1.57988,3.81476v2.05222c0,0.07716 -0.03073,0.15107 -0.0845,0.20561c-0.05463,0.05454 -0.12889,0.08518 -0.2057,0.08518z" fill="#ffffff" stroke="none" stroke-width="1"/><path d="M242.20451,147.11244v8.72494h-5.18006v24.38443h-9.99737v-24.38443h-4.5843c-1.31528,-0.00145 -2.5768,-0.52509 -3.50715,-1.45586c-0.92949,-0.93077 -1.45185,-2.19263 -1.45185,-3.50826v-3.76081z" fill="#ffffff" stroke="none" stroke-width="1"/><path d="M265.79585,190.41539c6.88673,4.12429 4.76402,23.70332 -0.53517,27.03989c-5.29919,3.33657 -19.58047,1.66187 -19.58047,1.66187c-0.05339,0.00048 -0.10626,-0.01059 -0.15579,-0.03248c-0.04945,-0.02189 -0.09446,-0.05428 -0.13248,-0.09519c-0.03802,-0.04091 -0.06831,-0.08961 -0.08907,-0.14334c-0.02083,-0.05372 -0.03175,-0.11135 -0.03212,-0.16968c0,0 0,-8.09499 0,-12.64686c0,-5.34096 0,-17.41168 0,-17.41168c0.00036,-0.05832 0.01129,-0.11598 0.03212,-0.16968c0.02076,-0.05371 0.05105,-0.10241 0.08907,-0.14334c0.03802,-0.04091 0.08303,-0.07325 0.13248,-0.09516c0.04953,-0.0219 0.1024,-0.03295 0.15579,-0.03251c0,0 13.22891,-1.88615 20.11564,2.23814zM254.73916,197.81069l-0.26773,12.14646c0,0 3.97546,-0.38123 5.46898,-2.6908c1.55694,-2.40763 1.23743,-6.78112 -0.59904,-8.49297c-0.87005,-0.81102 -4.60222,-0.96269 -4.60222,-0.96269z" data-paper-data="{&quot;index&quot;:null}" fill="#ffffff" stroke="none" stroke-width="1"/><path d="M216.36682,219.97083c0,0 0.06661,-13.06005 0.08486,-16.63865c0.00869,-1.70437 1.85989,-3.76667 3.4097,-3.76035c3.38063,0.01377 16.13225,0.06572 16.13225,0.06572l0.07964,-3.42937c0,0 -13.20615,0.15515 -16.71939,0.20072c-1.81472,0.02355 -2.9015,-1.72553 -2.91496,-2.8875c-0.01958,-1.69039 -0.0721,-6.22422 -0.0721,-6.22422c0,0 17.23931,0 21.4526,0c1.75961,0 3.74533,2.49066 3.74817,4.45599c0.00555,3.84202 0.02459,17.02918 0.02459,17.02918l-19.48803,0.19825l-0.00793,3.28909l19.1951,0.07362c0,0 0.09759,2.75848 0.14397,4.06944c0.04337,1.22583 -1.40789,3.55809 -2.86751,3.55809c-3.97508,0 -22.20094,0 -22.20094,0z" data-paper-data="{&quot;index&quot;:null}" fill="#ffffff" stroke="#000000" stroke-width="0"/></g></g></svg>