<svg version="1.1" xmlns="http://www.w3.org/2000/svg" xmlns:xlink="http://www.w3.org/1999/xlink" width="605.13913" height="438.97056" viewBox="0,0,605.13913,438.97056"><defs><linearGradient x1="466.30615" y1="205.8306" x2="466.30615" y2="283.26157" gradientUnits="userSpaceOnUse" id="color-1"><stop offset="0" stop-color="#005fff" stop-opacity="0.27772"/><stop offset="1" stop-color="#001a52"/></linearGradient></defs><g transform="translate(7.67169,-8.50605)"><g data-paper-data="{&quot;isPaintingLayer&quot;:true}" fill-rule="nonzero" stroke="none" stroke-linecap="butt" stroke-linejoin="miter" stroke-miterlimit="10" stroke-dasharray="" stroke-dashoffset="0" style="mix-blend-mode: normal"><path d="M342.65235,263.74205l9.00901,-51.90544l245.80608,-6.00601v57.91145z" fill="url(#color-1)" stroke-width="0"/><path d="M-7.67169,11.00605c0,-1.38071 1.11929,-2.5 2.5,-2.5c1.38071,0 2.5,1.11929 2.5,2.5c0,1.38071 -1.11929,2.5 -2.5,2.5c-1.38071,0 -2.5,-1.11929 -2.5,-2.5z" fill-opacity="0.27772" fill="#005fff" stroke-width="0.5"/><path d="M591.1036,444.97661c0,-1.38071 1.11929,-2.5 2.5,-2.5c1.38071,0 2.5,1.11929 2.5,2.5c0,1.38071 -1.11929,2.5 -2.5,2.5c-1.38071,0 -2.5,-1.11929 -2.5,-2.5z" fill-opacity="0.27772" fill="#005fff" stroke-width="0.5"/></g></g></svg>