<svg version="1.1" xmlns="http://www.w3.org/2000/svg" xmlns:xlink="http://www.w3.org/1999/xlink" width="176.61877" height="193.88332" viewBox="0,0,176.61877,193.88332"><defs><linearGradient x1="399.71669" y1="177.19369" x2="399.71669" y2="221.18565" gradientUnits="userSpaceOnUse" id="color-1"><stop offset="0" stop-color="#000000" stop-opacity="0.83311"/><stop offset="1" stop-color="#000000" stop-opacity="0"/></linearGradient></defs><g transform="translate(-290.20652,-161.04737)"><g data-paper-data="{&quot;isPaintingLayer&quot;:true}" fill-rule="nonzero" stroke="none" stroke-linecap="butt" stroke-linejoin="miter" stroke-miterlimit="10" stroke-dasharray="" stroke-dashoffset="0" style="mix-blend-mode: normal"><path d="M348.4443,215.86602l-31.9681,-37.85392l149.5405,-0.8184l0.80859,39.75582z" fill="url(#color-1)" stroke-width="0"/><path d="M426.69444,161.04737c1.38071,0 2.5,0.89543 2.5,2c0,1.10457 -1.11929,2 -2.5,2c-1.38071,0 -2.5,-0.89543 -2.5,-2c0,-1.10457 1.11929,-2 2.5,-2z" fill-opacity="0.08059" fill="#565656" stroke-width="0.5"/><path d="M290.20652,352.4307c0,-1.38071 1.11929,-2.5 2.5,-2.5c1.38071,0 2.5,1.11929 2.5,2.5c0,1.38071 -1.11929,2.5 -2.5,2.5c-1.38071,0 -2.5,-1.11929 -2.5,-2.5z" fill="#565656" stroke-width="0.5"/></g></g></svg>