<svg version="1.1" xmlns="http://www.w3.org/2000/svg" xmlns:xlink="http://www.w3.org/1999/xlink" width="370.42664" height="277.48549" viewBox="0,0,370.42664,277.48549"><g transform="translate(-54.79245,-39.16368)"><g data-paper-data="{&quot;isPaintingLayer&quot;:true}" fill-rule="nonzero" stroke-linecap="butt" stroke-linejoin="miter" stroke-miterlimit="10" stroke-dasharray="" stroke-dashoffset="0" style="mix-blend-mode: normal"><path d="M54.79245,316.64917v-273.29834h370.42664v273.29834z" fill-opacity="0.67742" fill="#0d6f00" stroke-opacity="0.50479" stroke="#171717" stroke-width="0"/><path d="M62.9594,302.61218c0,0 -2.17328,-13.48674 -1.47414,-19.70122c0.58687,-5.21657 5.39138,-15.11862 5.39138,-15.11862c0,0 3.60503,-1.49116 7.38132,-1.21024c4.54659,0.33821 9.60231,2.52769 12.36064,3.50122c4.80409,1.69556 9.85491,8.15498 9.85491,8.15498c0,0 1.63239,3.64346 2.08912,7.73154c0.22972,2.05622 -0.92176,3.79142 -0.54091,6.10689c0.74961,4.55734 2.47214,9.19664 2.2737,11.56735c-0.272,3.2497 -6.57849,7.52799 -6.57849,7.52799c0,0 -1.97413,0.07031 -4.64404,-0.27956c-5.66908,-0.74288 -14.98411,-2.3621 -18.7756,-3.41728c-3.04069,-0.84623 -7.33789,-4.86304 -7.33789,-4.86304z" fill="#bdbdbd" stroke="#000000" stroke-width="0"/><path d="M92.41118,294.77771c0,0 -4.59791,-5.05137 -5.58799,-7.80757c-0.62257,-1.7331 0.21993,-7.13594 0.21993,-7.13594c0,0 1.56217,0.01059 2.7394,0.70882c0.99444,0.58981 1.54796,1.87808 2.34721,1.94758c0.58268,0.05067 0.97368,-1.34169 1.78325,-1.65358c1.37693,-0.53048 3.14084,-0.13232 3.14084,-0.13232c0,0 1.72961,4.30399 1.91959,7.53379c0.09133,1.55258 -0.8889,3.76249 -0.28806,6.6157c0.41163,1.95466 2.05394,3.71677 2.04881,5.58229c-0.01153,4.19544 -2.08443,7.39867 -2.08443,7.39867c0,0 -2.88118,0.90998 -3.79577,-1.00429c-0.57455,-1.20255 -1.20111,-6.50956 -1.67582,-9.27884c-0.45246,-2.63948 -0.76696,-2.77432 -0.76696,-2.77432z" fill="#e2e2e2" stroke="none" stroke-width="0"/><text transform="translate(161.44056,178.31066) scale(0.43598,0.43598)" font-size="40" xml:space="preserve" fill="#ffffff" fill-rule="nonzero" stroke="none" stroke-width="1" stroke-linecap="butt" stroke-linejoin="miter" stroke-miterlimit="10" stroke-dasharray="" stroke-dashoffset="0" font-family="Pixel" font-weight="normal" text-anchor="start" style="mix-blend-mode: normal"><tspan x="0" dy="0">&lt;-</tspan></text><text transform="translate(407.84207,64.41368) scale(0.5,0.5)" font-size="40" xml:space="preserve" fill="#ffffff" fill-rule="nonzero" stroke="none" stroke-width="1" stroke-linecap="butt" stroke-linejoin="miter" stroke-miterlimit="10" stroke-dasharray="" stroke-dashoffset="0" font-family="Pixel" font-weight="normal" text-anchor="start" style="mix-blend-mode: normal"><tspan x="0" dy="0">x</tspan></text><text transform="translate(110.34207,305.47782) scale(0.40777,0.40777)" font-size="40" xml:space="preserve" fill="#ffffff" fill-rule="nonzero" stroke="none" stroke-width="1" stroke-linecap="butt" stroke-linejoin="miter" stroke-miterlimit="10" stroke-dasharray="" stroke-dashoffset="0" font-family="Pixel" font-weight="normal" text-anchor="start" style="mix-blend-mode: normal"><tspan x="0" dy="0">Gorilla OS</tspan></text><text transform="translate(71.11603,75.91335) scale(0.40244,0.40244)" font-size="40" xml:space="preserve" fill="#ffffff" fill-rule="nonzero" stroke="none" stroke-width="1" stroke-linecap="butt" stroke-linejoin="miter" stroke-miterlimit="10" stroke-dasharray="" stroke-dashoffset="0" font-family="Pixel" font-weight="normal" text-anchor="start" style="mix-blend-mode: normal"><tspan x="0" dy="0">ROOM</tspan></text><text transform="translate(71.11603,220.30479) scale(0.40244,0.40244)" font-size="40" xml:space="preserve" fill="#ffffff" fill-rule="nonzero" stroke="none" stroke-width="1" stroke-linecap="butt" stroke-linejoin="miter" stroke-miterlimit="10" stroke-dasharray="" stroke-dashoffset="0" font-family="Pixel" font-weight="normal" text-anchor="start" style="mix-blend-mode: normal"><tspan x="0" dy="0">USER ID</tspan></text><text transform="translate(71.11603,97.47845) scale(0.40244,0.40244)" font-size="40" xml:space="preserve" fill="#ffffff" fill-rule="nonzero" stroke="none" stroke-width="1" stroke-linecap="butt" stroke-linejoin="miter" stroke-miterlimit="10" stroke-dasharray="" stroke-dashoffset="0" font-family="Pixel" font-weight="normal" text-anchor="start" style="mix-blend-mode: normal"><tspan x="0" dy="0">COLOR</tspan></text><text transform="translate(71.11603,117.60064) scale(0.40244,0.40244)" font-size="40" xml:space="preserve" fill="#ffffff" fill-rule="nonzero" stroke="none" stroke-width="1" stroke-linecap="butt" stroke-linejoin="miter" stroke-miterlimit="10" stroke-dasharray="" stroke-dashoffset="0" font-family="Pixel" font-weight="normal" text-anchor="start" style="mix-blend-mode: normal"><tspan x="0" dy="0">CHAT</tspan></text><text transform="translate(71.11603,197.90534) scale(0.40244,0.40244)" font-size="40" xml:space="preserve" fill="#ffffff" fill-rule="nonzero" stroke="none" stroke-width="1" stroke-linecap="butt" stroke-linejoin="miter" stroke-miterlimit="10" stroke-dasharray="" stroke-dashoffset="0" font-family="Pixel" font-weight="normal" text-anchor="start" style="mix-blend-mode: normal"><tspan x="0" dy="0">QUEUE</tspan></text><text transform="translate(71.11603,136.48638) scale(0.40244,0.40244)" font-size="40" xml:space="preserve" fill="#ffffff" fill-rule="nonzero" stroke="none" stroke-width="1" stroke-linecap="butt" stroke-linejoin="miter" stroke-miterlimit="10" stroke-dasharray="" stroke-dashoffset="0" font-family="Pixel" font-weight="normal" text-anchor="start" style="mix-blend-mode: normal"><tspan x="0" dy="0">PLAYERS</tspan></text><text transform="translate(71.11603,177.68219) scale(0.40244,0.40244)" font-size="40" xml:space="preserve" fill="#ffffff" fill-rule="nonzero" stroke="none" stroke-width="1" stroke-linecap="butt" stroke-linejoin="miter" stroke-miterlimit="10" stroke-dasharray="" stroke-dashoffset="0" font-family="Pixel" font-weight="normal" text-anchor="start" style="mix-blend-mode: normal"><tspan x="0" dy="0">GRAPHICS</tspan></text><text transform="translate(71.11603,157.05694) scale(0.40244,0.40244)" font-size="40" xml:space="preserve" fill="#ffffff" fill-rule="nonzero" stroke="none" stroke-width="1" stroke-linecap="butt" stroke-linejoin="miter" stroke-miterlimit="10" stroke-dasharray="" stroke-dashoffset="0" font-family="Pixel" font-weight="normal" text-anchor="start" style="mix-blend-mode: normal"><tspan x="0" dy="0">SAVES</tspan></text><text transform="translate(177.84207,74.02584) scale(0.347,0.347)" font-size="40" xml:space="preserve" fill="#ffffff" fill-rule="nonzero" stroke="none" stroke-width="1" stroke-linecap="butt" stroke-linejoin="miter" stroke-miterlimit="10" stroke-dasharray="" stroke-dashoffset="0" font-family="Pixel" font-weight="normal" text-anchor="start" style="mix-blend-mode: normal"><tspan x="0" dy="0">GRAPHICS SETTINGS </tspan><tspan x="0" dy="48px">PRESS ENTER TO CHANGE</tspan></text><text transform="translate(178.49278,117.88258) scale(0.32353,0.32353)" font-size="40" xml:space="preserve" fill="#ffffff" fill-rule="nonzero" stroke="none" stroke-width="1" stroke-linecap="butt" stroke-linejoin="miter" stroke-miterlimit="10" stroke-dasharray="" stroke-dashoffset="0" font-family="Pixel" font-weight="normal" text-anchor="start" style="mix-blend-mode: normal"><tspan x="0" dy="0">RENDERING MODE: n/a</tspan></text></g></g></svg>