<svg version="1.1" xmlns="http://www.w3.org/2000/svg" xmlns:xlink="http://www.w3.org/1999/xlink" width="267.11494" height="80.44145" viewBox="0,0,267.11494,80.44145"><g transform="translate(-123.8764,-141.07467)"><g data-paper-data="{&quot;isPaintingLayer&quot;:true}" fill-rule="nonzero" stroke-linejoin="miter" stroke-miterlimit="10" stroke-dasharray="" stroke-dashoffset="0" style="mix-blend-mode: normal"><g fill="#ffffff" stroke="#ffffff" stroke-width="2"><path d="M338.60188,153.13013l1.11264,14.35316l-6.30919,3.62725c0,0 -3.47351,-5.17853 -4.85481,-8.01449c-2.08259,-4.27581 -6.42518,-15.14469 -6.42518,-15.14469c0,0 0.58291,-5.26656 8.0073,-6.86572c2.00534,-0.43195 8.46924,12.04449 8.46924,12.04449z" stroke-linecap="butt"/><path d="M142.67143,154.26857c0,0 5.15297,-2.91235 13.77949,-3.46843c0.21722,-0.014 9.23963,15.02869 9.4676,20.5399c0.07264,1.75602 0.08156,4.82317 -3.75826,5.35309c-4.35573,0.60112 -7.77324,0.84825 -7.77324,0.84825l-2.03208,6.25851l-1.17714,4.83042c0,0 2.58813,-0.25487 2.5934,-1.52285c0.01133,-2.73339 -3.57813,-5.7887 -3.57813,-5.7887c0,0 5.16046,-2.75112 6.1958,-3.18342c0.65841,-0.27491 2.16669,-1.16656 2.76896,-1.19119c1.38583,-0.05667 2.36741,1.72903 2.36741,1.72903c0,0 7.41029,11.70213 6.24717,15.95036c-2.55233,6.77501 -8.63162,10.99503 -16.02407,11.06262c-7.19819,0.06581 -13.1046,-9.43145 -15.13857,-15.5971c-1.11072,-3.36694 1.46669,-11.80264 1.46669,-11.80264l-4.58898,0.52699l-4.03494,-6.49814l7.47324,-12.4464l6.44313,1.1255z" stroke-linecap="butt"/><path d="M180.71536,154.43114c11.13991,-1.94061 16.94942,14.50281 16.28584,16.1859c-0.62058,1.57401 -3.51205,6.08898 -7.71305,8.9203c-2.02971,1.56112 -8.76769,6.721 -8.76769,6.721c0,0 2.16896,0.71481 4.28075,-0.87749c2.11178,-1.5923 2.15222,-3.96628 2.15222,-3.96628c0,0 1.88127,-3.88721 2.88706,-4.47662c2.06895,-1.21246 4.54464,0.25538 7.56252,3.39953c2.28273,2.37823 3.81581,6.34987 3.81581,6.34987c0,0 2.71006,3.92231 -8.31847,13.87218c-5.12895,4.62731 -14.90327,6.09208 -19.96128,1.94803c-12.61061,-10.33191 -11.15796,-21.153 -11.04044,-24.23897c0.50843,-13.35056 9.1114,-22.14672 18.81674,-23.83742z" stroke-linecap="butt"/><path d="M198.48212,174.36228c-1.28451,-5.76447 0.5038,-16.56101 9.75161,-17.59549c4.73021,-0.52913 9.5769,5.08221 9.5769,5.08221c0,0 3.47345,-8.88261 6.64954,-9.83386c4.21265,-1.26172 11.82794,9.92886 11.82794,9.92886l-8.11639,12.70197c0,0 7.72719,11.05142 7.65723,17.37182c-1.13028,7.88853 -14.01917,12.7323 -20.89598,13.2616c-3.22804,0.48142 -8.22348,-8.09699 -8.22348,-8.09699l-9.71462,1.75519l-3.87705,-6.61616c0,0 0.4202,-3.22968 0.68445,-5.29745c0.5908,-4.62341 3.35114,-5.40822 3.35114,-5.40822l4.89156,0.14998c0,0 -2.46092,-2.45812 -3.56289,-7.40342zM212.55771,188.48968c0,0 2.06633,0.83939 4.70737,-0.1726c1.95497,-0.74908 2.44329,-2.22414 2.44329,-2.22414z" stroke-linecap="butt"/><path d="M282.09578,168.04196c-1.58361,-3.08724 -3.31991,-9.20238 -3.31991,-9.20238l17.02645,-9.69085l2.41898,4.33382c0,0 4.64394,-4.39984 11.97027,-3.89919c6.55395,0.44788 15.98552,9.2593 15.71729,21.39088c-0.2269,10.26251 -2.74244,13.901 -2.74244,13.901c0,0 3.9035,5.16203 4.54981,7.94106c0.64632,2.77903 -0.6626,8.77322 -0.6626,8.77322c0,0 -21.24789,-0.89714 -24.48714,-0.89477c-1.85292,-0.0007 -11.96852,4.73018 -11.96852,4.73018l-4.52305,-7.21888l0.48661,-11.89513l4.82471,-3.20118l-1.38959,-9.24819l-1.99741,0.82823c0,0 -2.81679,-0.6304 -5.90346,-6.64783zM308.80752,170.69001l-3.3594,3.61889l0.81449,7.03179c0,0 1.71769,-5.10914 2.19507,-6.54916c0.63506,-1.91563 0.34984,-4.10152 0.34984,-4.10152z" stroke-linecap="butt"/><path d="M239.08528,154.58158c0,0 5.15297,-2.91233 13.77949,-3.46842c0.21723,-0.014 9.23961,15.02869 9.4676,20.5399c0.07264,1.75602 0.08154,4.82319 -3.75826,5.35311c-4.35573,0.60112 -7.77324,0.84823 -7.77324,0.84823l-2.03208,6.25852l-1.17712,4.83042c0,0 2.58813,-0.25487 2.5934,-1.52285c0.01134,-2.73339 -3.57813,-5.78871 -3.57813,-5.78871c0,0 5.16044,-2.75112 6.1958,-3.18341c0.6584,-0.27491 2.1667,-1.16656 2.76898,-1.1912c1.38582,-0.05667 2.36741,1.72903 2.36741,1.72903c0,0 7.41029,11.70212 6.24717,15.95036c-2.55234,6.77501 -8.6316,10.99503 -16.02405,11.06262c-7.19819,0.06581 -13.1046,-9.43145 -15.13857,-15.5971c-1.11072,-3.36694 1.46668,-11.80264 1.46668,-11.80264l-4.58898,0.52699l-4.03493,-6.49814l7.47324,-12.44639l6.44313,1.1255z" stroke-linecap="butt"/><path d="M284.6617,167.12822c0.83644,2.06287 -2.83067,20.64394 -2.83067,20.64394l4.38224,7.55128c0,0 0.53799,8.80941 -3.4745,9.98787c-3.44357,1.01138 -17.68525,-1.65491 -17.68525,-1.65491l-4.71633,-7.14232c0,0 0.45569,-8.45008 3.85206,-10.76232c0.63112,-0.42966 3.01818,0.08949 3.01818,0.08949l0.8312,-5.58934l-4.56474,-7.58704c0,0 -1.04123,-2.67142 -1.14525,-4.05941c-0.10105,-1.3484 0.52979,-4.15322 0.52979,-4.15322c0,0 -3.69323,-4.44094 -3.64246,-7.52078c-0.00795,-2.03375 0.57136,-5.30614 2.80949,-6.69891c3.27983,-2.04103 6.60021,0.25353 7.51321,1.47253c1.7936,2.39472 3.50615,5.96657 3.50615,5.96657l3.69561,-1.94212c0,0 4.34473,2.57805 7.92126,11.39872z" stroke-linecap="butt"/><path d="M134.56982,202.88177l241.66069,0.31304l11.13993,6.07195l-244.63392,11.23835l-12.54915,-6.35418l-4.38246,-28.17289z" stroke-linecap="round"/></g><path d="M338.60188,153.13013l1.11264,14.35316l-6.30919,3.62725c0,0 -3.47351,-5.17853 -4.85481,-8.01449c-2.08259,-4.27581 -6.42518,-15.14469 -6.42518,-15.14469c0,0 0.58291,-5.26656 8.0073,-6.86572c2.00534,-0.43195 8.46924,12.04449 8.46924,12.04449z" fill="#000000" stroke="none" stroke-width="0" stroke-linecap="butt"/><path d="M142.67143,154.26857c0,0 5.15297,-2.91235 13.77949,-3.46843c0.21722,-0.014 9.23963,15.02869 9.4676,20.5399c0.07264,1.75602 0.08156,4.82317 -3.75826,5.35309c-4.35573,0.60112 -7.77324,0.84825 -7.77324,0.84825l-2.03208,6.25851l-1.17714,4.83042c0,0 2.58813,-0.25487 2.5934,-1.52285c0.01133,-2.73339 -3.57813,-5.7887 -3.57813,-5.7887c0,0 5.16046,-2.75112 6.1958,-3.18342c0.65841,-0.27491 2.16669,-1.16656 2.76896,-1.19119c1.38583,-0.05667 2.36741,1.72903 2.36741,1.72903c0,0 7.41029,11.70213 6.24717,15.95036c-2.55233,6.77501 -8.63162,10.99503 -16.02407,11.06262c-7.19819,0.06581 -13.1046,-9.43145 -15.13857,-15.5971c-1.11072,-3.36694 1.46669,-11.80264 1.46669,-11.80264l-4.58898,0.52699l-4.03494,-6.49814l7.47324,-12.4464l6.44313,1.1255z" fill="#000000" stroke="none" stroke-width="0" stroke-linecap="butt"/><path d="M180.71536,154.43114c11.13991,-1.94061 16.94942,14.50281 16.28584,16.1859c-0.62058,1.57401 -3.51205,6.08898 -7.71305,8.9203c-2.02971,1.56112 -8.76769,6.721 -8.76769,6.721c0,0 2.16896,0.71481 4.28075,-0.87749c2.11178,-1.5923 2.15222,-3.96628 2.15222,-3.96628c0,0 1.88127,-3.88721 2.88706,-4.47662c2.06895,-1.21246 4.54464,0.25538 7.56252,3.39953c2.28273,2.37823 3.81581,6.34987 3.81581,6.34987c0,0 2.71006,3.92231 -8.31847,13.87218c-5.12895,4.62731 -14.90327,6.09208 -19.96128,1.94803c-12.61061,-10.33191 -11.15796,-21.153 -11.04044,-24.23897c0.50843,-13.35056 9.1114,-22.14672 18.81674,-23.83742z" fill="#000000" stroke="none" stroke-width="0" stroke-linecap="butt"/><path d="M198.48212,174.36228c-1.28451,-5.76447 0.5038,-16.56101 9.75161,-17.59549c4.73021,-0.52913 9.5769,5.08221 9.5769,5.08221c0,0 3.47345,-8.88261 6.64954,-9.83386c4.21265,-1.26172 11.82794,9.92886 11.82794,9.92886l-8.11639,12.70197c0,0 7.72719,11.05142 7.65723,17.37182c-1.13028,7.88853 -14.01917,12.7323 -20.89598,13.2616c-3.22804,0.48142 -8.22348,-8.09699 -8.22348,-8.09699l-9.71462,1.75519l-3.87705,-6.61616c0,0 0.4202,-3.22968 0.68445,-5.29745c0.5908,-4.62341 3.35114,-5.40822 3.35114,-5.40822l4.89156,0.14998c0,0 -2.46092,-2.45812 -3.56289,-7.40342zM212.55771,188.48968c0,0 2.06633,0.83939 4.70737,-0.1726c1.95497,-0.74908 2.44329,-2.22414 2.44329,-2.22414z" fill="#000000" stroke="none" stroke-width="0" stroke-linecap="butt"/><path d="M282.09578,168.04196c-1.58361,-3.08724 -3.31991,-9.20238 -3.31991,-9.20238l17.02645,-9.69085l2.41898,4.33382c0,0 4.64394,-4.39984 11.97027,-3.89919c6.55395,0.44788 15.98552,9.2593 15.71729,21.39088c-0.2269,10.26251 -2.74244,13.901 -2.74244,13.901c0,0 3.9035,5.16203 4.54981,7.94106c0.64632,2.77903 -0.6626,8.77322 -0.6626,8.77322c0,0 -21.24789,-0.89714 -24.48714,-0.89477c-1.85292,-0.0007 -11.96852,4.73018 -11.96852,4.73018l-4.52305,-7.21888l0.48661,-11.89513l4.82471,-3.20118l-1.38959,-9.24819l-1.99741,0.82823c0,0 -2.81679,-0.6304 -5.90346,-6.64783zM308.80752,170.69001l-3.3594,3.61889l0.81449,7.03179c0,0 1.71769,-5.10914 2.19507,-6.54916c0.63506,-1.91563 0.34984,-4.10152 0.34984,-4.10152z" fill="#000000" stroke="none" stroke-width="0" stroke-linecap="butt"/><path d="M283.6402,164.19623c0,0 -1.75395,-0.42811 -1.87675,-3.62227c2.81529,-1.90156 12.26813,-7.13904 12.26813,-7.13904l2.04695,8.36888c0,0 3.89988,-9.79465 13.92524,-9.40861c11.74457,0.45222 8.80943,12.72119 8.45279,15.75117c-0.60561,5.14515 -6.05623,17.687 -6.05623,17.687l7.08786,-2.13002c0,0 0.89595,1.06421 1.24971,3.48346c0.30176,2.06363 -0.51051,4.05623 -0.51051,4.05623l-14.58402,-0.00017c0,0 3.30336,-8.33663 5.71736,-15.87016c2.7076,-8.44981 4.18005,-16.20235 -2.99938,-16.12728c-6.54447,0.06843 -10.00479,6.87141 -10.00479,6.87141l2.0678,23.43219c0,0 -7.44103,1.44244 -11.40749,3.73122c0.2257,-3.92318 0.30555,-5.17747 0.30555,-5.17747l5.21026,-3.08484c0,0 -1.36331,-17.18184 -5.28501,-23.19387z" data-paper-data="{&quot;noHover&quot;:false,&quot;origItem&quot;:[&quot;Path&quot;,{&quot;applyMatrix&quot;:true,&quot;segments&quot;:[[[658.29396,340.09041],[0,0],[8.35208,12.80385]],[669.52417,389.33161],[658.31769,396.0676],[[657.78007,406.92965],[0.48067,-8.35524],[8.4474,-4.87443]],[682.02837,398.96911],[677.57945,349.0736],[[698.97288,334.44247],[-13.93782,0.14574],[15.29009,-0.15988]],[[705.41146,368.90201],[5.7664,-17.99564],[-5.1411,16.04422]],[693.11516,402.57907],[724.12619,402.60705],[[725.20467,393.97879],[0.64268,4.39492],[-0.75343,-5.15227]],[722.70947,386.67071],[707.46358,391.07974],[[720.33011,353.51393],[-1.28978,10.95766],[0.75955,-6.45297]],[[702.38536,320.0342],[25.01251,0.96311],[-21.35111,-0.82213]],[672.81059,340.07024],[668.44349,322.25021],[[642.36561,337.4138],[5.99575,-4.04976],[0.26154,6.80262]],[646.18804,345.03104]],&quot;closed&quot;:true}]}" fill="#ff0000" stroke="none" stroke-width="0" stroke-linecap="butt"/><path d="M239.08528,154.58158c0,0 5.15297,-2.91233 13.77949,-3.46842c0.21723,-0.014 9.23961,15.02869 9.4676,20.5399c0.07264,1.75602 0.08154,4.82319 -3.75826,5.35311c-4.35573,0.60112 -7.77324,0.84823 -7.77324,0.84823l-2.03208,6.25852l-1.17712,4.83042c0,0 2.58813,-0.25487 2.5934,-1.52285c0.01134,-2.73339 -3.57813,-5.78871 -3.57813,-5.78871c0,0 5.16044,-2.75112 6.1958,-3.18341c0.6584,-0.27491 2.1667,-1.16656 2.76898,-1.1912c1.38582,-0.05667 2.36741,1.72903 2.36741,1.72903c0,0 7.41029,11.70212 6.24717,15.95036c-2.55234,6.77501 -8.6316,10.99503 -16.02405,11.06262c-7.19819,0.06581 -13.1046,-9.43145 -15.13857,-15.5971c-1.11072,-3.36694 1.46668,-11.80264 1.46668,-11.80264l-4.58898,0.52699l-4.03493,-6.49814l7.47324,-12.44639l6.44313,1.1255z" fill="#000000" stroke="none" stroke-width="0" stroke-linecap="butt"/><path d="M284.6617,167.12822c0.83644,2.06287 -2.83067,20.64394 -2.83067,20.64394l4.38224,7.55128c0,0 0.53799,8.80941 -3.4745,9.98787c-3.44357,1.01138 -17.68525,-1.65491 -17.68525,-1.65491l-4.71633,-7.14232c0,0 0.45569,-8.45008 3.85206,-10.76232c0.63112,-0.42966 3.01818,0.08949 3.01818,0.08949l0.8312,-5.58934l-4.56474,-7.58704c0,0 -1.04123,-2.67142 -1.14525,-4.05941c-0.10105,-1.3484 0.52979,-4.15322 0.52979,-4.15322c0,0 -3.69323,-4.44094 -3.64246,-7.52078c-0.00795,-2.03375 0.57136,-5.30614 2.80949,-6.69891c3.27983,-2.04103 6.60021,0.25353 7.51321,1.47253c1.7936,2.39472 3.50615,5.96657 3.50615,5.96657l3.69561,-1.94212c0,0 4.34473,2.57805 7.92126,11.39872z" fill="#000000" stroke="none" stroke-width="0" stroke-linecap="butt"/><path d="M134.56982,202.88177l241.66069,0.31304l11.13993,6.07195l-244.63392,11.23835l-12.54915,-6.35418l-4.38246,-28.17289z" fill="#000000" stroke="none" stroke-width="0" stroke-linecap="round"/><path d="M330.06532,144.31617c0.6584,0.14841 1.94451,3.18703 1.94451,3.18703l0.09434,10.63764l-2.0776,1.00315l-4.93535,-11.72225c0,0 3.51122,-3.43532 4.97409,-3.10557z" data-paper-data="{&quot;noHover&quot;:false,&quot;origItem&quot;:[&quot;Path&quot;,{&quot;applyMatrix&quot;:true,&quot;segments&quot;:[[734.61971,309.42769],[745.04844,334.21701],[749.44406,332.09101],[749.22815,309.60148],[[745.13039,302.83438],[1.40219,0.31607],[-3.1155,-0.70226]]],&quot;closed&quot;:true}]}" fill="#ff0000" stroke="none" stroke-width="0" stroke-linecap="butt"/><path d="M148.90386,168.99627c0,0 -4.83449,12.66024 -3.96056,17.87614c0.57814,3.45056 5.06133,6.32875 9.39051,3.27745c4.40121,-3.10205 -0.12521,-8.20966 -0.12521,-8.20966l5.26558,-2.74643c0,0 3.37585,5.03498 2.12395,9.11348c-3.49421,8.37944 -13.67798,10.41844 -19.98881,4.81349c-5.45337,-5.45337 1.70419,-23.43071 1.70419,-23.43071c0,0 -8.98946,-0.12363 -9.42939,0.02689c1.00089,-1.40624 4.33081,-7.34398 4.33081,-7.34398c0,0 6.02617,1.78099 6.53797,0.99893c0.90257,-1.1371 0.47995,-6.15923 0.29683,-8.01516c2.18043,-0.58797 7.92485,-1.72346 7.92485,-1.72346l-2.63041,9.99993l9.10008,-1.57733c0,0 0.52463,5.18133 -0.28835,5.62082c-0.66058,0.3571 -10.25203,1.31959 -10.25203,1.31959z" data-paper-data="{&quot;noHover&quot;:false,&quot;origItem&quot;:[&quot;Path&quot;,{&quot;applyMatrix&quot;:true,&quot;segments&quot;:[[[375.07865,352.5416],[-1.40682,0.76051],[1.73141,-0.93598]],[375.71,340.59113],[356.375,343.97364],[361.975,322.67624],[[345.13494,326.34839],[4.64369,-1.25223],[0.38995,3.95257]],[[344.51454,343.4159],[1.9222,-2.42169],[-1.08997,1.66554]],[330.62542,341.27123],[[321.43478,356.86751],[2.1316,-2.99489],[0.93692,-0.32057]],[341.48853,356.85069],[[337.82619,406.58125],[-11.61409,-11.61409],[13.44023,11.9369]],[[380.29222,396.35469],[-7.44167,17.84576],[2.66618,-8.68599]],[375.74656,376.98105],[364.69345,382.93864],[[364.93208,400.44073],[9.3733,-6.60646],[-9.2199,6.49835]],[[344.87001,393.46575],[1.23128,7.34869],[-1.86122,-11.10833]],[353.34566,355.19914]],&quot;closed&quot;:true}]}" fill="#ff0000" stroke="none" stroke-width="0" stroke-linecap="butt"/><path d="M165.97923,169.9265c3.24186,-7.76359 8.38698,-13.01238 15.16689,-13.10509c9.31509,-0.12738 10.64142,6.88638 10.13256,8.11882c-0.40565,0.98248 -19.24743,15.79991 -19.24743,15.79991c0,0 0.38625,2.02415 0.94944,3.12542c2.49426,4.87728 11.31823,6.49359 14.21804,3.16665c2.89982,-3.32693 3.02252,-8.72878 3.02252,-8.72878l5.06094,3.02824c0,0 -0.48901,6.2769 -8.24308,11.33243c-12.26199,7.99462 -18.01981,0.49776 -19.18806,-0.90699c-3.55535,-4.13513 -4.80866,-14.79756 -1.87185,-21.83058z" data-paper-data="{&quot;noHover&quot;:false,&quot;origItem&quot;:[&quot;Path&quot;,{&quot;applyMatrix&quot;:true,&quot;segments&quot;:[[[401.74273,403.69295],[-7.57187,-8.80662],[2.48803,2.99172]],[[442.50489,405.61193],[-26.11446,17.02621],[16.51391,-10.76681]],[460.00564,381.53893],[449.42148,375.13565],[[442.94344,393.79062],[6.17576,-7.0854],[-6.17576,7.0854]],[[412.53724,387.03793],[5.31204,10.38716],[-1.19944,-2.34538]],[410.4954,380.35599],[[451.5046,346.73064],[-0.86392,2.09241],[1.08369,-2.62471]],[[429.98868,329.46854],[19.83842,-0.2713],[-14.43924,0.19746]],[[397.78453,357.32205],[6.90423,-16.53417],[-6.25453,14.97827]]],&quot;closed&quot;:true}]}" fill="#ff0000" stroke="none" stroke-width="0" stroke-linecap="butt"/><path d="M185.64094,165.16251c0,0 -13.87903,12.63354 -14.70908,11.8035c-0.02381,-0.02381 -3.16891,-8.58123 4.15084,-13.28014c7.81101,-5.01427 10.55824,1.47665 10.55824,1.47665z" fill="#000000" stroke="none" stroke-width="0" stroke-linecap="butt"/><path d="M219.7231,172.92208c0,0 8.27309,-0.73381 9.98921,11.92109c0.76748,5.65948 -10.27553,11.41994 -15.97607,11.85818c-8.01808,0.49443 -7.34376,-8.2135 -7.34376,-8.2135l-10.53819,1.05412l1.71227,-5.32991l9.01222,-0.10797c0,0 1.78526,10.17201 11.23756,6.47832c3.61578,-1.42095 5.4819,-4.88106 4.84917,-8.52527c-0.3285,-1.89195 -0.59221,-4.38684 -2.97405,-4.8601c-2.42025,-0.48088 -6.36567,0.27068 -8.66977,1.55365c-7.37674,4.1075 -9.94036,-0.32252 -10.56164,-7.81501c-0.61349,-7.39828 4.40596,-11.84236 8.29572,-11.79741c3.21094,0.0371 9.64883,6.59381 9.64883,6.59381c0,0 5.99206,-11.19255 6.17837,-11.2212c0.4754,-0.07309 4.61881,2.13191 4.61881,2.13191l-8.90853,14.91193c0,0 -15.46152,-12.68694 -16.22976,-2.21652c-0.64275,8.76014 15.65964,3.58387 15.65964,3.58387z" data-paper-data="{&quot;noHover&quot;:false,&quot;origItem&quot;:[&quot;Path&quot;,{&quot;applyMatrix&quot;:true,&quot;segments&quot;:[[[470.72143,355.96756],[-1.36888,18.65651],[1.63614,-22.29893]],[505.45525,360.69882],[524.27446,329.06401],[[514.45439,324.53533],[1.01246,-0.15566],[-0.3968,0.06101]],[501.29566,348.43288],[[480.81967,334.40012],[6.83838,0.07902],[-8.28407,-0.09572]],[[463.22187,359.46348],[-1.30654,-15.75618],[1.32317,15.95682]],[[485.6709,375.98474],[-15.71033,8.74777],[4.90706,-2.73233]],[[504.18311,372.78535],[-5.15445,-1.02413],[5.07266,1.00788]],[[510.50326,383.16821],[-0.69961,-4.02929],[1.34756,7.7611]],[[500.124,401.36467],[7.70056,-3.02623],[-20.13066,7.86647]],[476.1004,387.55358],[456.87902,387.752],[453.39672,398.99048],[475.80731,396.71947],[[491.39837,414.20147],[-17.07617,1.05298],[12.14048,-0.93331]],[[525.33942,388.99902],[1.63451,12.05305],[-3.65484,-26.95122]],[504.05989,363.69471]],&quot;closed&quot;:true}]}" fill="#ff0000" stroke="none" stroke-width="0" stroke-linecap="butt"/><path d="M245.31771,169.30932c0,0 -4.83449,12.66024 -3.96056,17.87614c0.57814,3.45056 5.06131,6.32875 9.3905,3.27745c4.40121,-3.10205 -0.1252,-8.20966 -0.1252,-8.20966l5.26557,-2.74643c0,0 3.37587,5.03498 2.12396,9.11348c-3.49423,8.37944 -13.67798,10.41844 -19.9888,4.81349c-5.45337,-5.45337 1.70419,-23.43072 1.70419,-23.43072c0,0 -8.98946,-0.12362 -9.42939,0.0269c1.00089,-1.40624 4.33081,-7.34399 4.33081,-7.34399c0,0 6.02617,1.78098 6.53796,0.99893c0.90257,-1.1371 0.47995,-6.15923 0.29684,-8.01516c2.18042,-0.58797 7.92485,-1.72344 7.92485,-1.72344l-2.63041,9.99993l9.10008,-1.57733c0,0 0.52464,5.18133 -0.28835,5.62081c-0.66058,0.3571 -10.25205,1.31961 -10.25205,1.31961z" data-paper-data="{&quot;noHover&quot;:false,&quot;origItem&quot;:[&quot;Path&quot;,{&quot;applyMatrix&quot;:true,&quot;segments&quot;:[[[375.07865,352.5416],[-1.40682,0.76051],[1.73141,-0.93598]],[375.71,340.59113],[356.375,343.97364],[361.975,322.67624],[[345.13494,326.34839],[4.64369,-1.25223],[0.38995,3.95257]],[[344.51454,343.4159],[1.9222,-2.42169],[-1.08997,1.66554]],[330.62542,341.27123],[[321.43478,356.86751],[2.1316,-2.99489],[0.93692,-0.32057]],[341.48853,356.85069],[[337.82619,406.58125],[-11.61409,-11.61409],[13.44023,11.9369]],[[380.29222,396.35469],[-7.44167,17.84576],[2.66618,-8.68599]],[375.74656,376.98105],[364.69345,382.93864],[[364.93208,400.44073],[9.3733,-6.60646],[-9.2199,6.49835]],[[344.87001,393.46575],[1.23128,7.34869],[-1.86122,-11.10833]],[353.34566,355.19914]],&quot;closed&quot;:true}]}" fill="#ff0000" stroke="none" stroke-width="0" stroke-linecap="butt"/><path d="M278.53031,190.21862c0,0 -0.16031,4.10398 -1.14818,4.90587c-0.53134,0.43131 -14.09282,-1.34408 -14.09282,-1.34408c0,0 0.4095,-4.72865 1.0767,-5.26112c0.73818,-0.58911 5.30292,1.05511 5.30292,1.05511l3.22432,-24.15925l-7.68238,3.80069c0,0 -0.5668,-3.73343 1.36096,-5.35927c2.05703,-1.73489 10.60635,-4.82655 10.60635,-4.82655c0,0 -4.23202,29.51819 -3.6903,30.80125c0.04235,0.16937 5.04244,0.38736 5.04244,0.38736z" data-paper-data="{&quot;noHover&quot;:false,&quot;origItem&quot;:[&quot;Path&quot;,{&quot;applyMatrix&quot;:true,&quot;segments&quot;:[[[624.63667,399.57209],[0.09018,0.36071],[-1.15373,-2.73254]],[632.48296,334.16698],[[609.95841,344.44659],[4.38088,-3.69479],[-4.10553,3.46256]],[606.97006,355.6843],[623.4065,347.5723],[616.51301,399.22257],[[605.17955,396.96265],[1.57211,-1.25464],[-1.42094,1.134]],[602.97806,407.98976],[[632.91628,410.84901],[-1.1316,0.91857],[2.10389,-1.70781]],[635.44544,400.5816]],&quot;closed&quot;:true}]}" fill="#ff0000" stroke="none" stroke-width="0" stroke-linecap="butt"/><path d="M263.50113,152.63592c1.03493,-0.56512 3.51839,0.04308 4.2722,1.43799c0.94393,1.74676 0.4647,3.38307 -1.89533,4.51712c-2.36003,1.13405 -3.62244,0.00919 -3.88285,-1.65355c-0.04319,-0.27586 -0.15708,-3.39344 1.50598,-4.30155z" data-paper-data="{&quot;noHover&quot;:false,&quot;origItem&quot;:[&quot;Path&quot;,{&quot;applyMatrix&quot;:true,&quot;segments&quot;:[[[600.27355,329.58],[-0.09201,-0.58749],[0.55457,3.54116]],[[608.42343,333.04105],[-5.02617,2.41518],[5.02617,-2.41518]],[[612.40122,323.57035],[2.01033,3.72007],[-1.60539,-2.97073]],[[603.43347,320.54376],[2.20408,-1.20353],[-3.54181,1.934]]],&quot;closed&quot;:true}]}" fill="#ff0000" stroke="none" stroke-width="0" stroke-linecap="butt"/><path d="M133.8655,205.22951l207.38369,-1.09561l-208.94886,8.13883l-4.14768,-19.25147z" fill="#ff0000" stroke="none" stroke-width="0" stroke-linecap="round"/></g></g></svg>