<svg version="1.1" xmlns="http://www.w3.org/2000/svg" xmlns:xlink="http://www.w3.org/1999/xlink" width="101.1851" height="101.1851" viewBox="0,0,101.1851,101.1851"><g transform="translate(-375.32586,-257.30042)"><g data-paper-data="{&quot;isPaintingLayer&quot;:true}" fill-rule="nonzero" stroke-linejoin="miter" stroke-miterlimit="10" stroke-dasharray="" stroke-dashoffset="0" style="mix-blend-mode: normal"><path d="M386.45142,307.89297c0,-21.79702 17.66997,-39.46699 39.46699,-39.46699c21.79702,0 39.46699,17.66997 39.46699,39.46699c0,21.79702 -17.66997,39.46699 -39.46699,39.46699c-21.79702,0 -39.46699,-17.66997 -39.46699,-39.46699z" fill-opacity="0.70161" fill="#000000" stroke="none" stroke-width="0" stroke-linecap="butt"/><path d="M378.32586,307.89297c0,-26.28464 21.30791,-47.59255 47.59255,-47.59255c26.28464,0 47.59255,21.30791 47.59255,47.59255c0,26.28464 -21.30791,47.59255 -47.59255,47.59255c-26.28464,0 -47.59255,-21.30791 -47.59255,-47.59255z" fill="none" stroke-opacity="0.70161" stroke="#000000" stroke-width="6" stroke-linecap="butt"/><path d="M431.37773,301.99546l-4.83367,-12.03871l-2.35498,-5.51073l0.68564,-2.91911l2.89341,0.11596l3.45634,1.55057l3.59506,6.09866l5.96513,14.561l8.64599,21.59104l-2.60618,5.63556l-18.45369,6.41336l-6.43861,-4.12955l-1.33579,-4.03103l-12.79763,-2.61881l-2.77167,-2.06398l-1.15769,-3.49356l1.0781,-2.14673l2.14988,-0.71242l2.41546,0.98905l6.80428,-0.16706l4.29819,-0.52958l-1.31908,-6.42253l0.53654,-6.73919l-5.06653,-20.68947l0.63284,-3.49041l2.06241,-1.87642l2.1483,0.18284l2.94978,2.60146l3.20905,7.88395l2.32852,5.63928z" fill-opacity="0.79839" fill="#ffffff" stroke="#000000" stroke-width="0" stroke-linecap="round"/></g></g></svg>